<svg width="486" height="274" viewBox="0 0 486 274" fill="none" xmlns="http://www.w3.org/2000/svg">
<path d="M168.228 199.038L130.588 236.678C117.658 249.608 100.688 256.068 83.6975 256.068C66.7175 256.068 49.7375 249.608 36.8075 236.678C10.9575 210.827 10.9575 168.757 36.8075 142.908L93.0375 86.6775C93.0075 85.6875 92.9875 84.6975 92.9875 83.6975C92.9875 75.2075 94.0775 66.8875 96.1875 58.8875L24.4875 130.588C-8.1625 163.238 -8.1625 216.358 24.4875 248.998C40.8075 265.318 62.2575 273.478 83.6975 273.478C105.138 273.478 126.577 265.318 142.908 248.998L180.548 211.358L168.228 199.038Z" fill="url(#paint0_linear)"/>
<path d="M295.888 273.488C274.448 273.488 253.008 265.328 236.678 249.008L130.588 142.908C114.768 127.088 106.068 106.068 106.068 83.6975C106.068 61.3275 114.778 40.3075 130.588 24.4875C163.238 -8.1625 216.358 -8.1625 248.998 24.4875L355.087 130.578C387.737 163.228 387.737 216.348 355.087 248.988C338.767 265.318 317.328 273.488 295.888 273.488ZM248.998 236.678C274.848 262.527 316.918 262.527 342.768 236.678C368.618 210.827 368.618 168.758 342.768 142.908L236.678 36.8175C210.828 10.9675 168.757 10.9675 142.908 36.8175C130.388 49.3375 123.488 65.9875 123.488 83.7075C123.488 101.417 130.388 118.068 142.908 130.598L248.998 236.678Z" fill="url(#paint1_linear)"/>
<path d="M342.768 24.4975L305.128 62.1375L317.448 74.4575L355.087 36.8175C380.937 10.9675 423.008 10.9675 448.858 36.8175C474.708 62.6675 474.708 104.737 448.858 130.587L392.587 186.857C392.867 196.208 391.808 205.587 389.398 214.687L461.178 142.907C493.828 110.257 493.828 57.1375 461.178 24.4975C428.538 -8.15251 375.418 -8.15251 342.768 24.4975Z" fill="url(#paint2_linear)"/>
<defs>
<linearGradient id="paint0_linear" x1="90.2738" y1="58.8875" x2="90.2738" y2="273.478" gradientUnits="userSpaceOnUse">
<stop stop-color="#7D17FF"/>
<stop offset="1" stop-color="#0085FF"/>
</linearGradient>
<linearGradient id="paint1_linear" x1="242.821" y1="0" x2="242.821" y2="273.488" gradientUnits="userSpaceOnUse">
<stop stop-color="#7D17FF"/>
<stop offset="1" stop-color="#0085FF"/>
</linearGradient>
<linearGradient id="paint2_linear" x1="395.396" y1="0.00999451" x2="395.396" y2="214.687" gradientUnits="userSpaceOnUse">
<stop stop-color="#7D17FF"/>
<stop offset="1" stop-color="#0085FF"/>
</linearGradient>
</defs>
</svg>
