<svg width="86" height="49" viewBox="0 0 86 49" fill="none" xmlns="http://www.w3.org/2000/svg">
<path d="M29.4746 34.9342L22.8798 41.5406C20.6144 43.81 17.6411 44.9438 14.6644 44.9438C11.6894 44.9438 8.71435 43.81 6.44892 41.5406C1.91983 37.0035 1.91983 29.6196 6.44892 25.0825L16.3008 15.2132C16.2955 15.0395 16.292 14.8657 16.292 14.6902C16.292 13.2001 16.483 11.7398 16.8527 10.3357L4.29038 22.9201C-1.43013 28.6507 -1.43013 37.9741 4.29038 43.7029C7.14975 46.5673 10.9079 47.9996 14.6644 47.9996C18.4208 47.9996 22.1772 46.5673 25.0384 43.7029L31.6331 37.0965L29.4746 34.9342Z" fill="white"/>
<path d="M51.8416 48.0013C48.0851 48.0013 44.3287 46.5691 41.4676 43.7047L22.8799 25.0825C20.1081 22.3058 18.5838 18.6165 18.5838 14.6902C18.5838 10.7639 20.1099 7.07459 22.8799 4.29794C28.6004 -1.43265 37.9074 -1.43265 43.6261 4.29794L62.2138 22.9184C67.9343 28.649 67.9343 37.9724 62.2138 43.7012C59.3544 46.5674 55.598 48.0013 51.8416 48.0013ZM43.6261 41.5406C48.1552 46.0777 55.5262 46.0777 60.0553 41.5406C64.5844 37.0035 64.5844 29.6196 60.0553 25.0825L41.4676 6.46205C36.9385 1.92497 29.5675 1.92497 25.0384 6.46205C22.8449 8.6595 21.6359 11.5818 21.6359 14.692C21.6359 17.8003 22.8449 20.7227 25.0384 22.9219L43.6261 41.5406Z" fill="white"/>
<path d="M60.0552 4.29968L53.4604 10.9061L55.619 13.0684L62.2138 6.46203C66.7429 1.92495 74.1138 1.92495 78.6429 6.46203C83.172 10.9991 83.172 18.383 78.6429 22.9201L68.784 32.7964C68.8331 34.4375 68.6474 36.0838 68.2251 37.681L80.8015 25.0825C86.522 19.3519 86.522 10.0285 80.8015 4.29968C75.0827 -1.43091 65.7757 -1.43091 60.0552 4.29968Z" fill="white"/>
</svg>
