<svg width="680" height="400" viewBox="0 0 680 400" fill="none" xmlns="http://www.w3.org/2000/svg">
<g clip-path="url(#clip0)">
<path d="M307.245 295.088C306.548 295.088 305.83 295.088 305.133 295.067C304.542 295.067 304.077 294.581 304.098 293.99C304.098 293.398 304.584 292.997 305.175 292.954C306.569 292.976 307.963 292.976 309.378 292.954C309.97 293.018 310.434 293.419 310.455 293.99C310.455 294.581 309.991 295.046 309.42 295.067C308.681 295.088 307.963 295.088 307.245 295.088ZM298.818 294.856C298.797 294.856 298.776 294.856 298.755 294.856C297.34 294.771 295.924 294.687 294.509 294.581C293.918 294.539 293.496 294.032 293.538 293.44C293.58 292.87 294.087 292.447 294.678 292.469C296.072 292.574 297.466 292.68 298.86 292.743C299.452 292.764 299.895 293.271 299.853 293.863C299.832 294.433 299.367 294.856 298.818 294.856ZM315.693 294.856C315.144 294.856 314.679 294.412 314.637 293.863C314.595 293.271 315.06 292.785 315.63 292.743C317.024 292.659 318.418 292.574 319.812 292.447C320.403 292.384 320.91 292.828 320.952 293.419C320.994 294.011 320.572 294.518 319.981 294.56C318.566 294.687 317.151 294.771 315.735 294.856C315.735 294.856 315.714 294.856 315.693 294.856ZM288.3 293.969C288.258 293.969 288.215 293.969 288.173 293.969C286.758 293.8 285.364 293.631 283.97 293.419C283.4 293.335 282.999 292.807 283.062 292.236C283.147 291.666 283.653 291.264 284.245 291.328C285.618 291.518 287.012 291.708 288.406 291.856C288.976 291.919 289.398 292.447 289.335 293.018C289.293 293.567 288.828 293.969 288.3 293.969ZM326.211 293.884C325.683 293.884 325.24 293.504 325.155 292.976C325.071 292.405 325.493 291.856 326.063 291.793C327.457 291.602 328.83 291.412 330.203 291.18C330.794 291.074 331.322 291.476 331.407 292.046C331.491 292.616 331.111 293.166 330.541 293.25C329.147 293.483 327.732 293.694 326.338 293.863C326.317 293.884 326.253 293.884 326.211 293.884ZM277.867 292.447C277.803 292.447 277.74 292.447 277.676 292.426C276.282 292.173 274.888 291.919 273.516 291.645C272.945 291.539 272.565 290.969 272.692 290.398C272.798 289.828 273.368 289.448 273.938 289.574C275.311 289.849 276.684 290.102 278.057 290.356C278.627 290.462 279.007 291.011 278.901 291.581C278.817 292.088 278.373 292.447 277.867 292.447ZM336.624 292.088C336.138 292.088 335.694 291.75 335.589 291.243C335.462 290.673 335.842 290.102 336.412 289.997C337.785 289.701 339.137 289.384 340.489 289.067C341.059 288.919 341.629 289.279 341.777 289.849C341.925 290.419 341.566 290.99 340.995 291.138C339.623 291.476 338.229 291.793 336.856 292.088C336.771 292.088 336.687 292.088 336.624 292.088ZM267.539 290.314C267.454 290.314 267.37 290.314 267.285 290.293C265.912 289.976 264.539 289.638 263.167 289.279C262.596 289.131 262.258 288.56 262.406 287.99C262.554 287.419 263.124 287.081 263.695 287.229C265.046 287.567 266.398 287.905 267.771 288.243C268.341 288.37 268.679 288.941 268.552 289.511C268.447 289.976 268.003 290.314 267.539 290.314ZM346.846 289.469C346.402 289.469 345.98 289.173 345.832 288.708C345.663 288.159 345.98 287.567 346.529 287.398C347.86 286.997 349.19 286.574 350.521 286.131C351.07 285.941 351.682 286.236 351.851 286.786C352.041 287.335 351.746 287.926 351.197 288.117C349.845 288.581 348.493 289.004 347.142 289.405C347.036 289.448 346.951 289.469 346.846 289.469ZM257.337 287.61C257.232 287.61 257.147 287.588 257.042 287.567C255.69 287.166 254.317 286.765 252.987 286.321C252.437 286.152 252.121 285.56 252.29 284.99C252.459 284.441 253.071 284.124 253.62 284.293C254.951 284.715 256.303 285.117 257.633 285.518C258.203 285.687 258.52 286.258 258.351 286.828C258.203 287.314 257.781 287.61 257.337 287.61ZM356.794 285.983C356.371 285.983 355.97 285.729 355.822 285.328C355.611 284.779 355.864 284.166 356.413 283.955C357.702 283.427 358.99 282.898 360.278 282.328C360.806 282.096 361.44 282.328 361.672 282.856C361.905 283.384 361.672 284.018 361.123 284.251C359.814 284.821 358.504 285.37 357.195 285.898C357.068 285.962 356.941 285.983 356.794 285.983ZM247.263 284.377C247.136 284.377 247.031 284.356 246.904 284.314C245.573 283.849 244.243 283.363 242.912 282.877C242.363 282.666 242.088 282.075 242.3 281.525C242.511 280.976 243.123 280.701 243.651 280.913C244.961 281.399 246.291 281.884 247.601 282.349C248.15 282.539 248.446 283.152 248.256 283.701C248.108 284.124 247.706 284.377 247.263 284.377ZM366.424 281.631C366.044 281.631 365.664 281.42 365.474 281.061C365.221 280.532 365.411 279.899 365.939 279.645C367.185 279.011 368.41 278.356 369.635 277.68C370.142 277.385 370.796 277.575 371.071 278.103C371.346 278.61 371.177 279.265 370.649 279.539C369.402 280.237 368.156 280.892 366.889 281.525C366.741 281.61 366.572 281.631 366.424 281.631ZM237.4 280.638C237.273 280.638 237.125 280.617 236.998 280.554C235.689 280.025 234.379 279.455 233.091 278.906C232.563 278.673 232.31 278.061 232.542 277.511C232.774 276.983 233.387 276.73 233.936 276.962C235.224 277.511 236.513 278.061 237.801 278.589C238.35 278.8 238.604 279.434 238.371 279.962C238.202 280.385 237.801 280.638 237.4 280.638ZM375.591 276.434C375.232 276.434 374.894 276.265 374.704 275.948C374.387 275.462 374.535 274.807 375.042 274.49C376.224 273.751 377.386 272.99 378.548 272.209C379.033 271.892 379.688 272.019 380.005 272.483C380.322 272.948 380.216 273.624 379.73 273.941C378.548 274.744 377.365 275.526 376.161 276.265C375.992 276.392 375.802 276.434 375.591 276.434ZM227.727 276.392C227.579 276.392 227.431 276.349 227.283 276.286C225.995 275.673 224.727 275.061 223.46 274.427C222.932 274.173 222.721 273.54 222.974 273.012C223.228 272.483 223.862 272.272 224.39 272.526C225.636 273.138 226.903 273.751 228.17 274.364C228.698 274.617 228.93 275.251 228.677 275.758C228.508 276.159 228.128 276.392 227.727 276.392ZM218.286 271.638C218.117 271.638 217.948 271.596 217.779 271.512C216.512 270.836 215.287 270.16 214.062 269.462C213.555 269.167 213.365 268.533 213.66 268.026C213.956 267.519 214.59 267.329 215.097 267.624C216.3 268.3 217.525 268.998 218.771 269.652C219.278 269.927 219.468 270.561 219.194 271.089C219.025 271.448 218.666 271.638 218.286 271.638ZM384.292 270.434C383.976 270.434 383.659 270.286 383.448 270.012C383.089 269.547 383.194 268.892 383.659 268.533C384.778 267.688 385.898 266.843 387.017 265.977C387.482 265.617 388.136 265.702 388.495 266.167C388.854 266.631 388.77 267.286 388.305 267.646C387.186 268.512 386.066 269.357 384.926 270.202C384.715 270.371 384.504 270.434 384.292 270.434ZM209.119 266.399C208.929 266.399 208.739 266.357 208.57 266.251C207.345 265.512 206.141 264.751 204.959 263.991C204.473 263.674 204.325 263.019 204.642 262.533C204.959 262.047 205.613 261.899 206.099 262.216C207.261 262.977 208.465 263.716 209.669 264.455C210.175 264.751 210.323 265.406 210.028 265.913C209.816 266.209 209.479 266.399 209.119 266.399ZM392.614 263.948C392.297 263.948 392.001 263.822 391.79 263.547C391.431 263.103 391.494 262.427 391.959 262.068C393.057 261.181 394.135 260.294 395.212 259.406C395.655 259.026 396.331 259.089 396.69 259.554C397.07 259.998 397.007 260.674 396.542 261.033C395.465 261.92 394.367 262.829 393.269 263.716C393.079 263.885 392.846 263.948 392.614 263.948ZM200.27 260.611C200.059 260.611 199.848 260.547 199.658 260.42C198.475 259.596 197.334 258.773 196.194 257.949C195.729 257.611 195.623 256.935 195.961 256.47C196.299 256.005 196.975 255.899 197.44 256.237C198.559 257.061 199.7 257.885 200.861 258.688C201.347 259.026 201.453 259.681 201.115 260.167C200.925 260.463 200.608 260.611 200.27 260.611ZM110.107 259.068C109.515 259.068 109.051 258.604 109.051 258.012C109.051 257.421 109.515 256.956 110.107 256.956C110.107 256.956 111.649 256.956 114.352 256.871C114.965 256.913 115.429 257.315 115.429 257.906C115.45 258.498 114.986 258.984 114.394 258.984C111.67 259.068 110.107 259.068 110.107 259.068ZM120.73 258.751C120.181 258.751 119.695 258.308 119.674 257.737C119.653 257.146 120.097 256.66 120.688 256.639C121.998 256.575 123.413 256.491 124.912 256.406C125.504 256.343 125.989 256.808 126.032 257.399C126.074 257.991 125.63 258.477 125.039 258.519C123.518 258.604 122.103 258.688 120.794 258.751C120.773 258.751 120.752 258.751 120.73 258.751ZM131.312 258.075C130.763 258.075 130.298 257.653 130.256 257.104C130.213 256.512 130.636 256.005 131.227 255.963C132.579 255.857 133.994 255.73 135.43 255.604C136.022 255.54 136.528 255.984 136.571 256.554C136.634 257.125 136.191 257.653 135.62 257.695C134.163 257.822 132.748 257.949 131.375 258.054C131.375 258.054 131.333 258.075 131.312 258.075ZM400.724 257.209C400.428 257.209 400.133 257.083 399.922 256.85C399.541 256.406 399.584 255.752 400.027 255.35C401.104 254.421 402.16 253.512 403.195 252.583C403.639 252.202 404.293 252.224 404.695 252.667C405.075 253.111 405.033 253.766 404.61 254.167C403.554 255.097 402.498 256.026 401.421 256.956C401.21 257.125 400.978 257.209 400.724 257.209ZM141.851 257.083C141.323 257.083 140.858 256.681 140.795 256.132C140.731 255.561 141.154 255.033 141.724 254.97C143.097 254.822 144.491 254.653 145.906 254.484C146.497 254.399 147.004 254.822 147.089 255.414C147.152 255.984 146.751 256.512 146.159 256.597C144.723 256.766 143.329 256.935 141.935 257.083C141.935 257.061 141.893 257.083 141.851 257.083ZM152.348 255.752C151.82 255.752 151.376 255.371 151.313 254.843C151.228 254.273 151.63 253.723 152.2 253.639C153.573 253.449 154.967 253.238 156.361 253.026C156.931 252.942 157.48 253.322 157.564 253.914C157.649 254.484 157.269 255.033 156.677 255.118C155.262 255.329 153.868 255.54 152.474 255.752C152.453 255.752 152.411 255.752 152.348 255.752ZM191.801 254.294C191.568 254.294 191.336 254.209 191.146 254.061C190.027 253.153 188.928 252.245 187.872 251.336C187.429 250.956 187.387 250.28 187.767 249.836C188.147 249.393 188.823 249.35 189.266 249.731C190.322 250.618 191.399 251.526 192.498 252.414C192.941 252.773 193.026 253.449 192.646 253.892C192.413 254.146 192.118 254.294 191.801 254.294ZM162.802 254.083C162.295 254.083 161.852 253.723 161.767 253.216C161.662 252.646 162.042 252.097 162.612 251.991C163.985 251.738 165.358 251.484 166.752 251.209C167.322 251.083 167.871 251.463 167.998 252.033C168.104 252.604 167.745 253.153 167.174 253.28C165.78 253.554 164.386 253.808 162.992 254.061C162.929 254.061 162.866 254.083 162.802 254.083ZM173.172 251.991C172.687 251.991 172.243 251.653 172.138 251.167C172.011 250.597 172.37 250.026 172.94 249.9C174.313 249.604 175.665 249.266 177.037 248.949C177.608 248.801 178.178 249.16 178.305 249.731C178.431 250.301 178.094 250.871 177.523 250.998C176.15 251.336 174.756 251.653 173.384 251.97C173.32 251.991 173.257 251.991 173.172 251.991ZM408.602 250.174C408.306 250.174 408.032 250.069 407.821 249.836C407.419 249.414 407.462 248.738 407.884 248.336C408.919 247.386 409.954 246.435 410.967 245.463C411.39 245.062 412.066 245.083 412.467 245.505C412.868 245.928 412.847 246.604 412.425 247.005C411.411 247.977 410.376 248.928 409.32 249.9C409.13 250.09 408.855 250.174 408.602 250.174ZM183.437 249.414C182.972 249.414 182.55 249.118 182.423 248.632C182.275 248.062 182.592 247.491 183.162 247.322C183.268 247.301 183.352 247.259 183.458 247.238C183.331 247.196 183.226 247.111 183.12 247.027C182.064 246.034 181.05 245.02 180.079 244.027C179.678 243.604 179.678 242.949 180.1 242.527C180.522 242.125 181.198 242.125 181.6 242.548C182.55 243.541 183.543 244.513 184.578 245.484C184.958 245.865 185.021 246.456 184.704 246.879C185.549 246.646 186.373 246.393 187.196 246.139C187.746 245.97 188.337 246.287 188.506 246.836C188.675 247.386 188.358 247.977 187.809 248.146C186.457 248.569 185.084 248.949 183.733 249.329C183.627 249.414 183.543 249.414 183.437 249.414ZM193.533 246.266C193.089 246.266 192.688 245.991 192.54 245.569C192.35 245.02 192.645 244.407 193.195 244.217C194.525 243.752 195.835 243.266 197.144 242.78C197.693 242.569 198.306 242.844 198.517 243.393C198.728 243.942 198.454 244.555 197.905 244.766C196.595 245.273 195.243 245.759 193.913 246.224C193.765 246.245 193.659 246.266 193.533 246.266ZM416.269 242.907C415.994 242.907 415.72 242.801 415.508 242.59C415.107 242.168 415.107 241.513 415.53 241.09C416.543 240.097 417.536 239.125 418.529 238.132C418.951 237.71 419.606 237.71 420.028 238.132C420.451 238.555 420.451 239.21 420.028 239.632C419.036 240.625 418.022 241.618 417.008 242.611C416.797 242.822 416.543 242.907 416.269 242.907ZM203.375 242.379C202.973 242.379 202.593 242.146 202.403 241.745C202.171 241.217 202.403 240.583 202.931 240.351C204.219 239.78 205.487 239.189 206.712 238.576C207.24 238.323 207.873 238.534 208.127 239.062C208.38 239.59 208.169 240.224 207.641 240.477C206.374 241.111 205.085 241.703 203.776 242.294C203.649 242.358 203.501 242.379 203.375 242.379ZM176.573 239.675C176.277 239.675 175.981 239.548 175.77 239.294C174.82 238.175 173.933 237.055 173.088 235.956C172.729 235.492 172.835 234.837 173.299 234.478C173.764 234.119 174.419 234.224 174.778 234.689C175.601 235.766 176.467 236.844 177.375 237.942C177.756 238.386 177.692 239.062 177.249 239.442C177.059 239.59 176.805 239.675 176.573 239.675ZM212.773 237.562C212.414 237.562 212.055 237.372 211.865 237.034C211.569 236.527 211.738 235.893 212.245 235.597C213.449 234.879 214.632 234.14 215.772 233.379C216.258 233.041 216.913 233.189 217.23 233.675C217.547 234.161 217.42 234.816 216.934 235.133C215.772 235.914 214.547 236.675 213.301 237.414C213.132 237.499 212.942 237.562 212.773 237.562ZM423.724 235.428C423.45 235.428 423.196 235.323 422.985 235.133C422.563 234.731 422.563 234.055 422.964 233.633C423.957 232.619 424.928 231.605 425.879 230.59C426.28 230.168 426.956 230.147 427.378 230.548C427.801 230.95 427.822 231.626 427.42 232.048C426.449 233.062 425.477 234.076 424.485 235.111C424.273 235.323 423.999 235.428 423.724 235.428ZM221.412 231.52C221.116 231.52 220.799 231.393 220.588 231.14C220.208 230.696 220.271 230.02 220.736 229.661C221.813 228.774 222.848 227.844 223.798 226.893C224.221 226.492 224.896 226.492 225.298 226.915C225.699 227.337 225.699 227.992 225.277 228.414C224.284 229.386 223.207 230.358 222.087 231.288C221.897 231.436 221.665 231.52 221.412 231.52ZM170.342 231.161C169.983 231.161 169.645 230.992 169.434 230.654C168.653 229.386 167.956 228.119 167.343 226.872C167.09 226.344 167.301 225.71 167.829 225.457C168.357 225.203 168.991 225.415 169.244 225.922C169.835 227.105 170.511 228.309 171.25 229.534C171.546 230.041 171.398 230.675 170.891 230.992C170.722 231.119 170.532 231.161 170.342 231.161ZM430.969 227.76C430.715 227.76 430.462 227.675 430.25 227.485C429.828 227.084 429.786 226.429 430.187 225.985C431.138 224.95 432.088 223.915 433.038 222.879C433.44 222.436 434.094 222.415 434.538 222.816C434.96 223.217 435.003 223.872 434.601 224.316C433.651 225.351 432.7 226.408 431.75 227.443C431.539 227.654 431.243 227.76 430.969 227.76ZM228.74 223.978C228.508 223.978 228.297 223.915 228.107 223.767C227.642 223.408 227.558 222.753 227.917 222.288C228.761 221.189 229.522 220.049 230.219 218.908C230.514 218.401 231.169 218.232 231.676 218.549C232.183 218.844 232.331 219.499 232.035 220.006C231.317 221.211 230.493 222.415 229.606 223.577C229.374 223.851 229.057 223.978 228.74 223.978ZM165.949 221.591C165.485 221.591 165.083 221.295 164.935 220.83C164.492 219.373 164.175 217.936 163.985 216.563C163.901 215.992 164.302 215.443 164.893 215.38C165.463 215.295 166.013 215.697 166.076 216.288C166.245 217.556 166.541 218.887 166.942 220.239C167.111 220.788 166.794 221.38 166.224 221.549C166.139 221.591 166.055 221.591 165.949 221.591ZM438.044 219.922C437.79 219.922 437.537 219.837 437.347 219.647C436.903 219.267 436.861 218.591 437.262 218.147L440.05 214.978C440.431 214.535 441.106 214.492 441.55 214.873C441.993 215.253 442.036 215.929 441.656 216.373L438.868 219.542C438.635 219.795 438.34 219.922 438.044 219.922ZM233.851 214.83C233.725 214.83 233.598 214.809 233.492 214.767C232.943 214.556 232.669 213.964 232.88 213.415L233.091 212.823C233.492 211.704 233.83 210.584 234.105 209.486C234.253 208.915 234.823 208.577 235.393 208.725C235.964 208.873 236.301 209.443 236.154 210.014C235.858 211.155 235.499 212.338 235.098 213.521L234.865 214.154C234.675 214.556 234.274 214.83 233.851 214.83ZM444.993 211.957C444.739 211.957 444.507 211.873 444.296 211.704C443.852 211.324 443.81 210.648 444.19 210.204L446.936 206.993C447.316 206.549 447.992 206.507 448.435 206.866C448.879 207.246 448.942 207.922 448.562 208.366L445.816 211.577C445.584 211.831 445.288 211.957 444.993 211.957ZM165.083 211.197C165.041 211.197 164.978 211.197 164.935 211.197C164.365 211.112 163.964 210.584 164.048 209.993C164.26 208.556 164.555 207.119 164.957 205.725C165.126 205.155 165.696 204.838 166.266 204.986C166.836 205.155 167.153 205.725 167.005 206.296C166.646 207.584 166.351 208.936 166.16 210.288C166.055 210.817 165.611 211.197 165.083 211.197ZM236.069 204.542C236.048 204.542 236.027 204.542 236.027 204.542C235.436 204.521 234.992 204.014 235.013 203.444C235.034 203.042 235.034 202.662 235.034 202.282C235.034 201.31 234.971 200.338 234.865 199.43C234.802 198.859 235.203 198.331 235.773 198.247C236.365 198.183 236.872 198.585 236.956 199.155C237.083 200.169 237.146 201.225 237.146 202.282C237.146 202.704 237.146 203.127 237.125 203.549C237.104 204.098 236.639 204.542 236.069 204.542ZM451.814 203.908C451.582 203.908 451.329 203.824 451.139 203.655C450.695 203.275 450.632 202.62 451.012 202.176L453.736 198.944C454.117 198.5 454.771 198.437 455.215 198.817C455.658 199.197 455.722 199.852 455.342 200.296L452.617 203.528C452.427 203.782 452.131 203.908 451.814 203.908ZM168.273 201.183C168.104 201.183 167.935 201.141 167.787 201.056C167.259 200.782 167.069 200.148 167.343 199.641C167.998 198.352 168.758 197.106 169.603 195.902C169.941 195.416 170.596 195.31 171.082 195.648C171.567 195.986 171.673 196.641 171.335 197.127C170.554 198.247 169.835 199.408 169.223 200.613C169.033 200.972 168.653 201.183 168.273 201.183ZM458.615 195.817C458.383 195.817 458.129 195.733 457.939 195.564C457.496 195.183 457.432 194.528 457.813 194.085L460.537 190.852C460.917 190.409 461.572 190.345 462.016 190.726C462.459 191.106 462.522 191.761 462.142 192.204L459.418 195.437C459.207 195.69 458.911 195.817 458.615 195.817ZM234.168 194.275C233.767 194.275 233.387 194.042 233.218 193.662C232.648 192.458 231.951 191.317 231.127 190.261C230.768 189.796 230.852 189.141 231.317 188.782C231.782 188.423 232.436 188.507 232.795 188.972C233.704 190.155 234.485 191.423 235.119 192.754C235.372 193.282 235.14 193.916 234.612 194.169C234.485 194.233 234.316 194.275 234.168 194.275ZM174.566 192.754C174.292 192.754 174.017 192.648 173.806 192.437C173.405 192.014 173.405 191.359 173.827 190.937C174.841 189.944 175.939 188.993 177.101 188.085C177.565 187.726 178.22 187.81 178.579 188.275C178.938 188.74 178.854 189.395 178.389 189.754C177.291 190.599 176.256 191.507 175.284 192.437C175.094 192.648 174.82 192.754 174.566 192.754ZM465.416 187.747C465.184 187.747 464.93 187.662 464.74 187.493C464.297 187.113 464.233 186.458 464.613 185.993L467.359 182.782C467.739 182.339 468.415 182.296 468.859 182.677C469.302 183.057 469.344 183.733 468.964 184.177L466.219 187.388C466.029 187.62 465.733 187.747 465.416 187.747ZM183.057 186.522C182.677 186.522 182.318 186.331 182.128 185.972C181.853 185.465 182.022 184.81 182.55 184.536C183.796 183.839 185.105 183.205 186.436 182.634C186.964 182.402 187.598 182.656 187.83 183.184C188.062 183.712 187.809 184.346 187.281 184.578C186.014 185.127 184.768 185.74 183.585 186.395C183.395 186.479 183.226 186.522 183.057 186.522ZM227.389 186.331C227.177 186.331 226.966 186.268 226.776 186.141C225.699 185.381 224.537 184.684 223.291 184.071C222.763 183.817 222.552 183.184 222.805 182.656C223.059 182.127 223.693 181.916 224.221 182.17C225.551 182.825 226.818 183.585 227.98 184.409C228.466 184.747 228.571 185.402 228.233 185.888C228.043 186.184 227.727 186.331 227.389 186.331ZM192.793 182.529C192.329 182.529 191.906 182.233 191.78 181.768C191.611 181.219 191.949 180.627 192.498 180.458C193.87 180.057 195.286 179.719 196.68 179.444C197.25 179.318 197.799 179.698 197.926 180.268C198.031 180.839 197.672 181.388 197.102 181.515C195.75 181.789 194.399 182.106 193.089 182.487C193.005 182.508 192.899 182.529 192.793 182.529ZM217.842 181.958C217.758 181.958 217.652 181.937 217.568 181.916C216.3 181.578 214.928 181.282 213.555 181.071C212.984 180.987 212.583 180.437 212.668 179.867C212.752 179.296 213.301 178.895 213.872 178.98C215.329 179.212 216.765 179.508 218.117 179.888C218.687 180.036 219.004 180.627 218.856 181.177C218.729 181.641 218.307 181.958 217.842 181.958ZM203.185 180.67C202.635 180.67 202.171 180.247 202.129 179.698C202.086 179.106 202.53 178.62 203.1 178.578C204.304 178.494 205.508 178.451 206.712 178.451H207.409C208 178.451 208.465 178.937 208.444 179.529C208.444 180.099 207.958 180.564 207.388 180.564H207.366H206.712C205.55 180.564 204.41 180.606 203.248 180.691C203.227 180.67 203.206 180.67 203.185 180.67ZM472.322 179.761C472.069 179.761 471.816 179.677 471.625 179.508C471.182 179.127 471.14 178.451 471.541 178.008C472.47 176.952 473.421 175.895 474.35 174.839C474.751 174.395 475.406 174.374 475.85 174.754C476.293 175.135 476.314 175.811 475.934 176.254C475.005 177.29 474.075 178.346 473.125 179.402C472.914 179.635 472.618 179.761 472.322 179.761ZM479.398 171.924C479.144 171.924 478.891 171.839 478.68 171.649C478.257 171.247 478.236 170.593 478.637 170.149C479.609 169.114 480.58 168.079 481.552 167.065C481.953 166.642 482.629 166.621 483.052 167.043C483.474 167.445 483.474 168.121 483.073 168.543C482.101 169.557 481.151 170.571 480.179 171.607C479.968 171.818 479.693 171.924 479.398 171.924ZM486.748 164.339C486.473 164.339 486.199 164.234 485.987 164.022C485.586 163.6 485.586 162.945 485.987 162.522C487.001 161.53 488.015 160.537 489.029 159.565C489.451 159.163 490.127 159.185 490.528 159.607C490.93 160.03 490.908 160.706 490.486 161.107C489.472 162.058 488.458 163.029 487.466 164.022C487.276 164.255 487.022 164.339 486.748 164.339ZM494.457 157.156C494.161 157.156 493.865 157.03 493.654 156.797C493.274 156.354 493.316 155.699 493.76 155.297C494.837 154.368 495.914 153.438 496.991 152.53C497.435 152.15 498.11 152.213 498.47 152.657C498.85 153.1 498.786 153.776 498.343 154.135C497.266 155.023 496.21 155.931 495.154 156.861C494.964 157.051 494.71 157.156 494.457 157.156ZM502.63 150.481C502.313 150.481 501.997 150.333 501.785 150.058C501.426 149.593 501.532 148.938 501.997 148.579C503.137 147.713 504.278 146.889 505.439 146.065C505.925 145.727 506.58 145.854 506.918 146.319C507.256 146.784 507.129 147.46 506.664 147.798C505.524 148.6 504.404 149.424 503.285 150.269C503.074 150.396 502.841 150.481 502.63 150.481ZM511.311 144.481C510.952 144.481 510.614 144.312 510.424 143.974C510.107 143.488 510.276 142.833 510.762 142.516C511.966 141.777 513.19 141.037 514.415 140.34C514.922 140.044 515.577 140.213 515.852 140.742C516.147 141.249 515.957 141.882 515.45 142.178C514.247 142.875 513.043 143.594 511.86 144.312C511.691 144.439 511.501 144.481 511.311 144.481ZM520.519 139.368C520.139 139.368 519.759 139.157 519.569 138.777C519.315 138.249 519.527 137.615 520.055 137.361C521.322 136.749 522.61 136.136 523.92 135.566C524.448 135.333 525.081 135.566 525.314 136.115C525.546 136.643 525.314 137.277 524.764 137.509C523.476 138.08 522.23 138.65 520.984 139.263C520.836 139.326 520.667 139.368 520.519 139.368ZM530.214 135.228C529.791 135.228 529.369 134.953 529.221 134.53C529.031 133.981 529.305 133.369 529.854 133.178C531.185 132.692 532.516 132.249 533.888 131.805C534.438 131.636 535.029 131.932 535.219 132.502C535.388 133.052 535.092 133.643 534.522 133.833C533.192 134.256 531.861 134.699 530.573 135.185C530.446 135.206 530.319 135.228 530.214 135.228ZM540.288 132.164C539.823 132.164 539.38 131.847 539.274 131.362C539.126 130.791 539.485 130.221 540.056 130.073C541.429 129.735 542.801 129.418 544.216 129.122C544.787 128.974 545.336 129.376 545.463 129.946C545.589 130.517 545.209 131.066 544.639 131.193C543.266 131.467 541.914 131.784 540.563 132.122C540.457 132.143 540.372 132.164 540.288 132.164ZM550.616 130.136C550.109 130.136 549.644 129.756 549.581 129.228C549.497 128.657 549.898 128.108 550.468 128.024C551.862 127.812 553.256 127.643 554.692 127.495C555.284 127.432 555.79 127.855 555.854 128.425C555.917 128.995 555.495 129.524 554.924 129.587C553.531 129.735 552.137 129.925 550.785 130.115C550.721 130.136 550.679 130.136 550.616 130.136ZM561.113 129.101C560.564 129.101 560.099 128.657 560.057 128.108C560.014 127.517 560.479 127.031 561.049 126.988C562.443 126.904 563.858 126.862 565.295 126.819C565.865 126.777 566.372 127.263 566.372 127.855C566.393 128.446 565.928 128.911 565.337 128.932C563.922 128.974 562.528 129.017 561.155 129.101C561.155 129.101 561.134 129.101 561.113 129.101ZM572.053 128.932C572.032 128.932 572.032 128.932 572.011 128.932H571.631C571.039 128.932 570.575 128.446 570.596 127.855C570.596 127.263 571.103 126.777 571.673 126.819H572.074C572.666 126.841 573.109 127.326 573.088 127.918C573.088 128.467 572.623 128.932 572.053 128.932Z" fill="#D3E0EA"/>
<path d="M365.031 111.947L361.884 111.588C361.905 111.356 364.313 89.3422 355.506 79.5609C352.739 76.4765 349.233 74.9765 344.797 74.9765C344.755 74.9765 344.692 74.9765 344.65 74.9765C338.229 75.0188 333.329 76.899 330.055 80.5538C324.501 86.7648 325.409 96.187 325.43 96.2927L322.283 96.6307C322.241 96.187 321.206 85.7508 327.69 78.4623C331.576 74.1103 337.279 71.871 344.629 71.8076C349.993 71.8287 354.471 73.6667 357.871 77.4271C367.608 88.2859 365.136 110.975 365.031 111.947Z" fill="#3B343F"/>
<path d="M332.273 120.207C332.02 122.573 331.28 126.545 328.915 127.77C328.809 127.834 328.662 127.876 328.556 127.939C322.875 130.496 317.383 125.468 317.489 118.221C317.573 112.919 320.762 109.306 325.662 108.736C326.169 108.672 326.718 108.715 327.225 108.82C328.809 109.158 330.246 110.257 330.985 111.841C332.041 114.081 332.442 118.644 332.273 120.207Z" fill="#544F5B"/>
<path d="M332.272 120.208C332.019 122.574 331.28 126.545 328.914 127.771C328.809 127.834 328.661 127.876 328.555 127.94C331.237 121.56 331.491 114.525 327.225 108.842C328.809 109.18 330.245 110.278 330.984 111.863C332.04 114.081 332.441 118.644 332.272 120.208Z" fill="#3B343F"/>
<path d="M322.706 121.834C321.735 119.912 321.545 117.799 322.094 115.708C322.559 113.954 319.834 113.194 319.369 114.947C318.63 117.778 318.947 120.63 320.256 123.25C321.08 124.897 323.53 123.461 322.706 121.834Z" fill="#8A8691"/>
<path d="M125.061 90.2924C125.061 59.9554 149.645 35.3647 179.974 35.3647C210.303 35.3647 234.887 59.9554 234.887 90.2924C234.887 120.629 210.303 145.22 179.974 145.22C149.645 145.22 125.061 120.629 125.061 90.2924Z" fill="#BED0E2"/>
<path d="M129.792 90.4403C129.792 60.1034 154.376 35.5127 184.705 35.5127C215.034 35.5127 239.618 60.1034 239.618 90.4403C239.618 120.777 215.034 145.368 184.705 145.368C154.376 145.368 129.792 120.777 129.792 90.4403Z" fill="#D3E0EA"/>
<path d="M142.421 90.4402C142.421 67.0959 161.345 48.167 184.683 48.167C208.021 48.167 226.945 67.0959 226.945 90.4402C226.945 113.784 208.021 132.713 184.683 132.713C161.345 132.734 142.421 113.806 142.421 90.4402Z" fill="white"/>
<path d="M180.416 92.9968L187.66 90.6729L175.094 59.3008L180.416 92.9968Z" fill="#67B2D0"/>
<path d="M181.789 92.6165L189.012 90.3138L175.094 59.3008L181.789 92.6165Z" fill="#7DC7E7"/>
<path d="M183.627 94.729L184.62 89.3841L166.963 87.8208L183.627 94.729Z" fill="#67B2D0"/>
<path d="M183.838 93.7361L184.831 88.4123L166.963 87.8208L183.838 93.7361Z" fill="#7DC7E7"/>
<path d="M178.538 91.0746C178.538 87.6733 181.305 84.9058 184.705 84.9058C188.106 84.9058 190.872 87.6733 190.872 91.0746C190.872 94.4759 188.106 97.2434 184.705 97.2434C181.284 97.2434 178.538 94.4759 178.538 91.0746Z" fill="#EA5081"/>
<path d="M181.43 91.0743C181.43 89.2575 182.887 87.7998 184.703 87.7998C186.52 87.7998 187.977 89.2575 187.977 91.0743C187.977 92.8912 186.52 94.3489 184.703 94.3489C182.887 94.3489 181.43 92.87 181.43 91.0743Z" fill="white"/>
<path d="M183.868 67.0957H185.516V53.3426H183.868V67.0957Z" fill="#7DC7E7"/>
<path d="M197.779 66.1191L199.205 66.9434L203.949 58.7298L202.522 57.9056L197.779 66.1191Z" fill="#C3E7F3"/>
<path d="M208.211 75.9249L209.035 77.3516L217.246 72.605L216.421 71.1783L208.211 75.9249Z" fill="#C3E7F3"/>
<path d="M208.047 89.63V91.2778H221.796V89.63H208.047Z" fill="#7DC7E7"/>
<path d="M209.043 103.538L208.219 104.965L216.429 109.712L217.254 108.286L209.043 103.538Z" fill="#C3E7F3"/>
<path d="M199.202 113.945L197.775 114.77L202.518 122.983L203.944 122.159L199.202 113.945Z" fill="#C3E7F3"/>
<path d="M185.528 113.785H183.881V127.538H185.528V113.785Z" fill="#7DC7E7"/>
<path d="M171.606 114.782L170.179 113.958L165.438 122.173L166.865 122.997L171.606 114.782Z" fill="#C3E7F3"/>
<path d="M161.198 104.962L160.374 103.535L152.162 108.278L152.985 109.705L161.198 104.962Z" fill="#C3E7F3"/>
<path d="M161.349 91.2684V89.6206H147.599V91.2684H161.349Z" fill="#7DC7E7"/>
<path d="M160.377 77.3549L161.2 75.9277L152.987 71.1859L152.163 72.6131L160.377 77.3549Z" fill="#C3E7F3"/>
<path d="M170.16 66.9528L171.587 66.1289L166.845 57.9134L165.419 58.7374L170.16 66.9528Z" fill="#C3E7F3"/>
<path d="M679.768 390.092C679.768 395.564 505.883 400 291.384 400C76.8846 400 -97 395.564 -97 390.092C-97 384.62 76.8846 380.163 291.384 380.163C505.883 380.163 679.768 384.62 679.768 390.092Z" fill="#EDF1F4"/>
<path d="M582.719 321.327H534.586L524.828 267.519H592.477L582.719 321.327Z" fill="#F8CB3D"/>
<path d="M582.719 321.327C582.719 324.58 571.948 327.221 558.642 327.221C545.336 327.221 534.564 324.58 534.564 321.327C534.564 318.073 545.336 315.433 558.642 315.433C571.948 315.433 582.719 318.073 582.719 321.327Z" fill="#F8CB3D"/>
<path d="M592.477 267.519C592.477 271.11 577.334 274.026 558.663 274.026C539.993 274.026 524.85 271.11 524.85 267.519C524.85 263.928 539.993 261.012 558.663 261.012C577.334 261.012 592.477 263.928 592.477 267.519Z" fill="#FFD766"/>
<path d="M558.643 272.061C575.976 272.061 590.028 270.028 590.028 267.519C590.028 265.011 575.976 262.977 558.643 262.977C541.309 262.977 527.258 265.011 527.258 267.519C527.258 270.028 541.309 272.061 558.643 272.061Z" fill="#544F5B"/>
<path d="M597.314 195.669C594.821 195.057 592.266 195.036 589.795 195.5C590.597 193.029 590.872 190.451 590.407 187.811C590.154 186.268 589.203 181.79 586.648 182.846C584.726 183.628 583.923 188.191 583.67 189.965C583.29 192.839 583.944 195.543 585.866 197.698C585.592 198.205 585.613 198.881 586.268 199.261C590.09 201.479 599.975 203.697 601.855 200.571C603.291 198.205 599.574 196.24 597.314 195.669Z" fill="#AFC737"/>
<path d="M587.196 207.267C584.641 206.95 582.128 207.246 579.72 208.007C580.206 205.45 580.163 202.873 579.382 200.296C578.938 198.796 577.46 194.465 575.031 195.838C573.236 196.852 572.982 201.479 572.961 203.253C572.94 206.148 573.912 208.746 576.108 210.647C575.897 211.176 576.003 211.852 576.7 212.147C580.755 213.88 590.85 214.873 592.329 211.535C593.427 209.063 589.499 207.563 587.196 207.267Z" fill="#AFC737"/>
<path d="M580.564 219.711C578.008 219.985 575.622 220.852 573.446 222.14C573.341 219.542 572.707 217.028 571.376 214.704C570.595 213.352 568.166 209.465 566.117 211.345C564.597 212.739 565.399 217.302 565.78 219.035C566.413 221.845 567.955 224.168 570.511 225.542C570.426 226.112 570.701 226.746 571.419 226.873C575.77 227.654 585.823 226.323 586.499 222.732C587.048 220.028 582.887 219.457 580.564 219.711Z" fill="#AFC737"/>
<path d="M576.89 232.281C574.397 232.936 572.159 234.14 570.216 235.745C569.73 233.189 568.716 230.802 567.047 228.71C566.076 227.485 563.098 223.999 561.345 226.154C560.057 227.76 561.535 232.154 562.169 233.823C563.204 236.527 565.104 238.576 567.829 239.548C567.829 240.119 568.188 240.71 568.927 240.731C573.341 240.858 583.099 238.048 583.226 234.393C583.352 231.647 579.15 231.689 576.89 232.281Z" fill="#AFC737"/>
<path d="M572.454 248.505C569.962 249.16 567.723 250.364 565.78 251.97C565.294 249.414 564.28 247.027 562.612 244.935C561.64 243.71 558.662 240.224 556.909 242.379C555.621 243.984 557.1 248.379 557.733 250.048C558.768 252.752 560.669 254.801 563.393 255.773C563.393 256.343 563.752 256.935 564.492 256.956C568.906 257.082 578.664 254.273 578.79 250.618C578.896 247.872 574.693 247.914 572.454 248.505Z" fill="#AFC737"/>
<path d="M570.49 258.54C567.998 259.195 565.759 260.4 563.816 262.005C563.33 259.449 562.317 257.062 560.648 254.97C559.677 253.745 556.699 250.259 554.946 252.414C553.657 254.02 555.136 258.414 555.769 260.083C556.804 262.787 561.789 266.97 562.549 266.97C566.963 267.097 576.721 264.287 576.847 260.632C576.953 257.886 572.75 257.949 570.49 258.54Z" fill="#AFC737"/>
<path d="M594.948 189.205C584.134 196.028 577.46 206.824 573.173 218.633C567.702 233.759 564.661 250.005 561.535 265.744C561.239 267.223 563.521 267.857 563.816 266.378C566.562 252.583 569.434 238.661 573.51 225.182C577.544 211.809 583.965 198.923 596.152 191.254C597.419 190.451 596.236 188.402 594.948 189.205Z" fill="#A3B20B"/>
<path d="M606.586 182.951C606.48 182.571 606.142 182.212 605.762 182.127C603.545 181.642 600.355 182.339 598.391 183.395C595.899 184.705 594.906 187.155 594.125 189.712C593.808 190.705 594.801 191.296 595.582 191.106C595.793 191.275 596.026 191.381 596.3 191.402C598.962 191.529 602.51 191.296 604.664 189.479C606.354 188.064 607.135 185.064 606.586 182.951Z" fill="#AFC737"/>
<path d="M516.718 200.571C518.598 203.718 528.482 201.5 532.305 199.261C532.96 198.881 532.981 198.205 532.706 197.698C534.649 195.543 535.304 192.839 534.903 189.965C534.67 188.191 533.847 183.649 531.925 182.846C529.348 181.79 528.419 186.268 528.165 187.811C527.722 190.451 527.975 193.008 528.778 195.5C526.307 195.036 523.751 195.057 521.259 195.669C519.02 196.24 515.303 198.205 516.718 200.571Z" fill="#AFC737"/>
<path d="M526.265 211.556C527.743 214.894 537.839 213.922 541.894 212.168C542.591 211.873 542.696 211.197 542.485 210.668C544.682 208.767 545.653 206.147 545.632 203.274C545.611 201.479 545.358 196.873 543.562 195.859C541.134 194.486 539.676 198.838 539.212 200.317C538.43 202.873 538.388 205.471 538.874 208.028C536.466 207.267 533.931 206.971 531.397 207.288C529.074 207.563 525.145 209.063 526.265 211.556Z" fill="#AFC737"/>
<path d="M532.03 222.732C532.706 226.323 542.76 227.633 547.11 226.873C547.85 226.746 548.124 226.112 548.019 225.542C550.574 224.19 552.137 221.866 552.75 219.035C553.13 217.281 553.932 212.739 552.412 211.345C550.363 209.465 547.934 213.352 547.174 214.704C545.843 217.028 545.21 219.542 545.104 222.14C542.929 220.852 540.542 219.985 537.986 219.711C535.705 219.457 531.524 220.028 532.03 222.732Z" fill="#AFC737"/>
<path d="M535.326 234.372C535.453 238.027 545.19 240.836 549.625 240.71C550.364 240.689 550.744 240.118 550.723 239.527C553.469 238.576 555.349 236.506 556.384 233.801C557.038 232.133 558.496 227.738 557.207 226.133C555.475 223.978 552.476 227.464 551.505 228.689C549.836 230.78 548.822 233.168 548.337 235.724C546.394 234.118 544.155 232.914 541.663 232.259C539.445 231.689 535.242 231.647 535.326 234.372Z" fill="#AFC737"/>
<path d="M539.782 250.597C539.909 254.252 549.645 257.062 554.081 256.935C554.82 256.914 555.2 256.343 555.179 255.752C557.925 254.78 559.804 252.731 560.839 250.027C561.494 248.358 562.972 243.963 561.663 242.358C559.931 240.203 556.932 243.689 555.96 244.914C554.292 247.006 553.278 249.393 552.792 251.949C550.849 250.343 548.611 249.139 546.118 248.484C543.88 247.914 539.677 247.872 539.782 250.597Z" fill="#AFC737"/>
<path d="M541.726 260.611C541.853 264.265 551.589 267.075 556.024 266.948C556.764 266.927 561.748 262.744 562.804 260.061C563.459 258.392 564.937 253.998 563.628 252.392C561.896 250.238 558.897 253.723 557.925 254.949C556.257 257.04 555.243 259.427 554.757 261.984C552.814 260.378 550.575 259.174 548.083 258.519C545.844 257.949 541.641 257.885 541.726 260.611Z" fill="#AFC737"/>
<path d="M523.625 189.205C534.439 196.028 541.113 206.824 545.4 218.633C550.87 233.759 553.912 250.005 557.038 265.744C557.333 267.223 555.052 267.857 554.756 266.378C552.011 252.583 549.138 238.661 545.062 225.182C541.028 211.809 534.608 198.923 522.421 191.254C521.154 190.451 522.337 188.402 523.625 189.205Z" fill="#A3B20B"/>
<path d="M511.987 182.951C512.093 182.571 512.431 182.212 512.811 182.127C515.029 181.642 518.218 182.339 520.182 183.395C522.674 184.705 523.667 187.155 524.448 189.712C524.744 190.705 523.773 191.296 522.991 191.106C522.78 191.275 522.548 191.381 522.273 191.402C519.612 191.529 516.064 191.296 513.909 189.479C512.22 188.064 511.438 185.064 511.987 182.951Z" fill="#AFC737"/>
<path d="M496.78 231.288C499.125 234.097 508.544 230.4 511.987 227.612C512.578 227.147 512.494 226.471 512.135 226.006C513.719 223.577 513.951 220.809 513.128 218.02C512.621 216.309 511.1 211.936 509.094 211.45C506.39 210.795 506.158 215.38 506.137 216.943C506.094 219.626 506.77 222.119 507.932 224.443C505.419 224.358 502.905 224.781 500.54 225.774C498.407 226.682 495.027 229.196 496.78 231.288Z" fill="#AFC737"/>
<path d="M507.932 240.71C509.896 243.794 519.717 241.259 523.476 238.914C524.11 238.513 524.131 237.837 523.835 237.33C525.694 235.111 526.285 232.386 525.799 229.534C525.504 227.781 524.532 223.239 522.61 222.52C520.012 221.549 519.21 226.048 518.999 227.591C518.618 230.252 518.978 232.809 519.865 235.259C517.372 234.879 514.817 234.964 512.346 235.661C510.086 236.316 506.453 238.386 507.932 240.71Z" fill="#AFC737"/>
<path d="M515.366 250.85C516.591 254.294 526.729 254.061 530.911 252.625C531.629 252.371 531.798 251.716 531.608 251.167C533.931 249.435 535.114 246.9 535.283 244.026C535.388 242.252 535.494 237.625 533.762 236.463C531.46 234.921 529.665 239.146 529.094 240.604C528.123 243.097 527.89 245.674 528.186 248.273C525.842 247.343 523.35 246.857 520.773 246.984C518.471 247.048 514.437 248.252 515.366 250.85Z" fill="#AFC737"/>
<path d="M520.415 261.857C521.112 265.448 531.165 266.716 535.516 265.934C536.255 265.807 536.53 265.173 536.424 264.603C538.98 263.23 540.522 260.906 541.134 258.096C541.514 256.343 542.296 251.78 540.775 250.406C538.727 248.547 536.319 252.434 535.537 253.787C534.207 256.11 533.594 258.624 533.489 261.223C531.313 259.955 528.906 259.089 526.35 258.836C524.048 258.582 519.887 259.153 520.415 261.857Z" fill="#AFC737"/>
<path d="M537.374 264.899C534.396 257.505 531.735 251.674 527.933 244.766C521.892 233.759 513.634 224.105 501.891 219.035C500.476 218.422 499.631 220.619 501.025 221.232C514.247 226.936 522.568 238.703 528.63 251.294C531.143 256.491 532.833 260.378 535.029 265.744C535.473 266.991 537.564 266.04 537.374 264.899Z" fill="#A3B20B"/>
<path d="M489.409 214.619C489.452 214.239 489.726 213.817 490.106 213.669C492.218 212.845 495.492 213.056 497.583 213.774C500.244 214.704 501.596 216.943 502.758 219.352C503.222 220.302 502.335 221.021 501.533 220.957C501.342 221.147 501.131 221.316 500.878 221.359C498.259 221.887 494.711 222.204 492.324 220.746C490.423 219.647 489.198 216.795 489.409 214.619Z" fill="#AFC737"/>
<path d="M616.765 225.774C614.4 224.781 611.887 224.379 609.373 224.443C610.556 222.119 611.211 219.626 611.168 216.943C611.147 215.38 610.915 210.816 608.212 211.45C606.205 211.936 604.684 216.309 604.178 218.02C603.354 220.788 603.586 223.576 605.17 226.006C604.811 226.471 604.748 227.147 605.318 227.612C608.74 230.4 618.18 234.097 620.525 231.287C622.278 229.196 618.899 226.682 616.765 225.774Z" fill="#AFC737"/>
<path d="M604.959 235.682C602.488 234.985 599.953 234.879 597.44 235.28C598.327 232.83 598.665 230.274 598.306 227.612C598.095 226.069 597.292 221.549 594.694 222.541C592.751 223.26 591.801 227.802 591.505 229.555C591.019 232.407 591.611 235.133 593.469 237.351C593.174 237.858 593.195 238.534 593.828 238.935C597.567 241.28 607.388 243.794 609.373 240.731C610.851 238.386 607.197 236.316 604.959 235.682Z" fill="#AFC737"/>
<path d="M596.512 246.942C593.956 246.815 591.443 247.301 589.098 248.23C589.394 245.632 589.162 243.076 588.19 240.562C587.62 239.104 585.846 234.879 583.522 236.421C581.791 237.562 581.896 242.188 582.002 243.984C582.192 246.857 583.354 249.392 585.677 251.125C585.508 251.674 585.677 252.35 586.374 252.582C590.556 254.019 600.693 254.251 601.918 250.808C602.869 248.251 598.835 247.047 596.512 246.942Z" fill="#AFC737"/>
<path d="M590.935 258.815C588.38 259.068 585.972 259.934 583.797 261.202C583.712 258.603 583.079 256.089 581.748 253.766C580.966 252.414 578.559 248.505 576.51 250.385C574.989 251.78 575.771 256.343 576.151 258.075C576.764 260.906 578.305 263.23 580.861 264.582C580.776 265.153 581.03 265.786 581.769 265.913C586.12 266.716 596.173 265.427 596.87 261.836C597.419 259.153 593.237 258.582 590.935 258.815Z" fill="#AFC737"/>
<path d="M579.932 264.899C582.91 257.505 585.571 251.674 589.373 244.766C595.413 233.759 603.672 224.105 615.415 219.035C616.83 218.422 617.674 220.619 616.28 221.232C603.059 226.936 594.738 238.703 588.676 251.294C586.163 256.491 584.473 260.378 582.276 265.744C581.833 266.991 579.742 266.04 579.932 264.899Z" fill="#A3B20B"/>
<path d="M627.896 214.619C627.854 214.239 627.58 213.816 627.199 213.668C625.087 212.844 621.814 213.056 619.723 213.774C617.062 214.703 615.71 216.943 614.548 219.351C614.084 220.302 614.971 221.02 615.773 220.957C615.942 221.147 616.175 221.316 616.428 221.358C619.047 221.886 622.595 222.203 624.982 220.745C626.861 219.647 628.108 216.795 627.896 214.619Z" fill="#AFC737"/>
<path d="M488.691 327.179H626.628L631.507 318.939H483.833L488.691 327.179Z" fill="#564E4E"/>
<path d="M625.846 390.599H630.197L623.924 327.179H614.694L625.846 390.599Z" fill="#564E4E"/>
<path d="M603.375 390.599H607.725L601.474 327.179H592.244L603.375 390.599Z" fill="#3B343F"/>
<path d="M491.246 390.599H486.896L493.147 327.179H502.377L491.246 390.599Z" fill="#564E4E"/>
<path d="M512.092 390.599H507.741L514.014 327.179H523.222L512.092 390.599Z" fill="#3B343F"/>
<path d="M29.3429 139.58C29.2373 138.608 26.7451 115.919 36.5028 105.081C39.9032 101.3 44.3807 99.4405 49.7453 99.4616C57.0952 99.525 62.7977 101.764 66.6839 106.116C73.1679 113.384 72.133 123.841 72.0907 124.285L68.9438 123.947C68.9438 123.862 69.8731 114.419 64.3184 108.208C61.0447 104.553 56.1448 102.673 49.7242 102.631C49.6819 102.631 49.6186 102.631 49.5763 102.631C45.141 102.631 41.635 104.13 38.8683 107.194C30.0821 116.975 32.4688 139.01 32.4899 139.221L29.3429 139.58Z" fill="#3B343F"/>
<path d="M60.1994 148.115C60.4528 150.502 61.192 154.453 63.5575 155.678C63.6631 155.741 63.811 155.784 63.9166 155.847C69.598 158.403 75.0893 153.375 74.9837 146.129C74.8992 140.826 71.71 137.214 66.8101 136.644C66.3032 136.58 65.7541 136.622 65.2472 136.728C63.6631 137.066 62.2269 138.165 61.4877 139.749C60.4317 142.01 60.0304 146.573 60.1994 148.115Z" fill="#544F5B"/>
<path d="M60.1994 148.115C60.4528 150.503 61.192 154.453 63.5575 155.678C63.6631 155.742 63.811 155.784 63.9166 155.847C61.2343 149.467 60.9808 142.432 65.2472 136.75C63.6631 137.088 62.2269 138.186 61.4877 139.771C60.4317 142.01 60.0304 146.573 60.1994 148.115Z" fill="#3B343F"/>
<path d="M69.7453 149.763C70.7169 147.819 70.9069 145.728 70.3578 143.636C69.8932 141.883 72.6177 141.122 73.0823 142.876C73.8427 145.707 73.5048 148.559 72.1953 151.178C71.3716 152.826 68.9427 151.39 69.7453 149.763Z" fill="#8A8691"/>
<path d="M29.7227 150.967C29.7227 150.967 34.6437 160.051 38.1286 161.572C41.6134 163.115 35.932 147.671 35.932 147.671L29.7227 150.967Z" fill="#613D44"/>
<path d="M-4.74622 244.788C33.2706 233.76 69.3021 269.294 81.2774 302.673C81.2774 302.673 106.305 302.842 117.774 336.221C129.242 369.6 117.71 383.776 67.718 386.628C4.10324 390.283 -26.6481 386.628 -37.0816 363.157C-47.5151 339.707 -60.5464 260.949 -4.74622 244.788Z" fill="#AFC737"/>
<path d="M3.21484 326.503C3.21484 326.503 36.3739 304.004 74.7076 307.553C74.7076 307.553 40.0489 285.878 3.21484 326.503Z" fill="#A3B20B"/>
<path d="M138.028 288.899C143.266 296.842 150.046 386.121 150.046 386.121L144.259 386.522L116.696 308.229C116.696 308.229 76.631 306.94 71.6888 299.145C67.0634 291.835 67.0634 278.948 67.0634 278.948C69.3233 279.054 54.3066 266.209 54.3066 266.209C88.6696 266.188 134.036 282.857 138.028 288.899Z" fill="#564E4E"/>
<path d="M116.696 308.208L143.899 386.057L147.849 386.712C147.849 386.712 124.722 298.849 121.85 291.581C116.612 278.378 75.8916 269.293 75.8916 269.293L94.6888 305.989C94.6888 306.032 114.246 309.179 116.696 308.208Z" fill="#473D3D"/>
<path d="M116.168 294.138C119.02 301.828 109.283 385.994 109.283 385.994L103.01 386.522L87.8247 307.511C87.8247 307.511 35.0024 312.264 30.0602 304.469C25.4349 297.159 22.7314 275.801 22.7314 275.801C24.9913 275.906 46.492 265.977 46.492 265.977C80.8549 265.956 113.676 287.357 116.168 294.138Z" fill="#564E4E"/>
<path d="M142.126 381.684L141.154 387.451H164.957C164.957 387.451 157.227 381.705 149.687 381.705C149.771 382.445 144.196 383.691 142.337 381.811L142.126 381.684Z" fill="#F39428"/>
<path d="M164.957 387.452H141.154V389.078H164.957V387.452Z" fill="#E07E1B"/>
<path d="M102.229 381.684L101.258 387.451H125.061C125.061 387.451 117.33 381.705 109.79 381.705C109.875 382.445 104.299 383.691 102.441 381.811L102.229 381.684Z" fill="#F39428"/>
<path d="M125.061 387.452H101.258V389.078H125.061V387.452Z" fill="#E07E1B"/>
<path d="M67.4218 183.818C80.7277 184.684 99.1447 235.619 108.586 246.098C116.738 255.139 89.6405 266.886 82.7764 262.365C75.9122 257.822 59.5861 183.311 67.4218 183.818Z" fill="#C3E7F3"/>
<path d="M67.4226 183.818C82.4392 197.001 74.7725 263.463 99.1455 257.907C99.1455 257.907 88.6064 267.688 82.7772 262.343C68.014 248.865 38.5298 184.916 67.4226 183.818Z" fill="#9ED4E3"/>
<path d="M66.1554 162.565C65.8808 163.283 65.6063 163.959 65.4162 164.572C64.8671 166.283 64.4658 167.973 64.2123 169.621C63.9167 171.269 63.7266 172.832 63.6421 174.29C63.3464 178.98 63.811 182.339 63.811 182.339C50.6319 188.846 36.3545 179.888 36.3545 179.888C36.9881 178.05 37.4739 175.79 37.8752 173.529C38.6777 168.924 38.9945 164.276 39.0579 162.924C39.079 162.84 39.079 162.776 39.079 162.713C39.1001 162.607 39.1002 162.565 39.1002 162.565H66.1554Z" fill="#F5B379"/>
<path d="M66.1543 162.565C65.8797 163.283 65.6052 163.959 65.4151 164.572C64.6547 166.727 64.3168 168.353 64.2112 169.621C63.9155 171.269 63.7254 172.832 63.641 174.29C57.3893 177.036 50.314 178.156 45.1817 177.036C41.8658 176.339 39.3525 174.712 37.874 173.529C38.6766 168.924 38.9934 164.276 39.0568 162.924C39.0779 162.84 39.0779 162.776 39.0779 162.713C39.099 162.607 39.099 162.565 39.099 162.565H66.1543Z" fill="#F29866"/>
<path d="M35.1499 151.727C35.1499 151.727 37.3042 166.114 42.4153 168.945C47.5265 171.776 65.4577 172.03 69.2594 167.466C73.0611 162.903 72.343 125.299 70.9279 122.362C69.4917 119.426 44.6963 108.546 36.2904 120.524C27.8633 132.545 35.1499 151.727 35.1499 151.727Z" fill="#F5B379"/>
<path d="M77.4756 108.271C75.2791 111.989 58.0448 102.229 45.0557 103.792C34.3477 105.081 27.2934 117.947 27.4202 118.517C24.7379 119.383 22.647 126.038 23.534 130.728C26.871 148.305 35.805 151.368 37.4735 150.903C45.2458 148.727 45.9217 134.214 41.6131 123.101C48.4772 122.446 54.2642 121.454 61.7409 123.207C65.0146 123.968 71.1606 126.946 74.4976 124.939C79.4609 121.961 81.2984 110.32 77.4756 108.271Z" fill="#855E4F"/>
<path d="M63.0496 143.15C64.2957 145.2 65.3094 146.869 66.6189 148.453L67.1891 149.129L66.6611 149.784C66.2176 150.333 65.6051 150.65 65.0349 150.756C64.4646 150.904 63.9155 150.861 63.3875 150.777C62.3737 150.566 61.6345 150.122 60.7686 149.699C61.6767 149.319 62.6905 149.361 63.472 149.235C64.2323 149.129 64.8448 148.812 65.056 148.495L65.0982 149.826C63.4086 148.052 62.4582 145.517 63.0496 143.15Z" fill="#F29866"/>
<path d="M49.7239 136.537C49.7661 134.657 55.2997 133.453 58.4889 135.545C59.8195 136.411 58.2143 140.805 54.2859 140.742C50.97 140.678 49.7028 138.101 49.7239 136.537Z" fill="white"/>
<path d="M57.0733 138.502C56.8199 139.897 55.4893 140.805 54.1165 140.552C52.7225 140.298 51.8143 138.967 52.0678 137.594C52.3212 136.2 53.6518 135.291 55.0247 135.545C56.4186 135.777 57.3268 137.108 57.0733 138.502Z" fill="#80B2D5"/>
<path d="M57.1994 136.369C57.1149 136.834 56.6714 137.151 56.2067 137.066C55.7421 136.982 55.4253 136.538 55.5097 136.073C55.5942 135.608 56.0378 135.291 56.5024 135.376C56.967 135.46 57.2839 135.904 57.1994 136.369Z" fill="white"/>
<path d="M63.3473 136.855C63.4318 134.974 68.5641 133.791 71.4365 135.883C72.6192 136.749 71.0141 141.122 67.4025 141.059C64.34 140.995 63.2629 138.418 63.3473 136.855Z" fill="white"/>
<path d="M70.3362 138.925C70.0617 140.298 68.71 141.207 67.3371 140.911C65.9643 140.636 65.0561 139.284 65.3518 137.911C65.6264 136.538 66.9781 135.629 68.3509 135.925C69.7237 136.2 70.6108 137.552 70.3362 138.925Z" fill="#80B2D5"/>
<path d="M70.4852 136.813C70.3796 137.277 69.9361 137.573 69.4715 137.489C69.0068 137.404 68.7112 136.939 68.7956 136.475C68.8801 136.01 69.3448 135.714 69.8094 135.799C70.2952 135.883 70.5908 136.348 70.4852 136.813Z" fill="white"/>
<path d="M46.154 127.242C46.5976 126.143 56.672 124.369 57.5168 125.045C58.256 125.636 58.3616 127.749 57.9815 130.01C57.897 130.559 57.3267 130.939 56.7987 130.77C54.4332 130.01 49.4699 130.517 47.7381 130.728C47.3579 130.77 46.9989 130.559 46.8721 130.221C46.5131 129.355 45.9428 127.77 46.154 127.242Z" fill="#855E4F"/>
<path d="M74.7934 129.228C74.561 128.066 65.4581 124.454 64.5711 124.961C63.8107 125.404 63.3672 127.453 63.3672 129.735C63.3672 130.305 63.8318 130.77 64.3387 130.707C66.662 130.411 71.1818 131.827 72.7869 132.376C73.1248 132.503 73.4839 132.355 73.674 132.038C74.1175 131.235 74.899 129.798 74.7934 129.228Z" fill="#855E4F"/>
<path d="M35.5733 176.424C35.5733 176.424 18.1067 187.98 11.6016 193.029C11.6016 193.029 23.8725 267.794 22.2463 290.187C22.2463 290.187 74.7728 281.167 84.8895 269.611C84.8895 269.611 74.7728 242.886 74.7728 223.387C74.7728 203.888 72.9776 186.184 65.0152 181.135C65.0363 181.114 52.9132 189.057 35.5733 176.424Z" fill="#C3E7F3"/>
<path d="M17.0081 229.154C17.0081 229.154 24.4003 280.617 22.246 290.187C22.246 290.187 36.9247 288.201 46.0699 285.159C46.0699 285.159 27.4839 257.505 27.9485 239.865C28.9412 202.768 11.8125 192.965 11.8125 192.965C11.8125 192.965 20.2607 221.57 17.0081 229.154Z" fill="#9ED4E3"/>
<path d="M11.8329 192.944C-5.14796 203.486 -10.8927 252.878 -4.11306 282.117C-1.97989 291.307 6.70061 288.941 15.9091 282.729C22.4142 278.335 16.5216 271.216 17.1552 269.314C18.7181 264.561 25.6879 229.492 25.6879 229.492C25.6879 229.492 23.428 205.07 11.8329 192.944Z" fill="#C3E7F3"/>
<path d="M54.877 157.917C56.2075 158.784 57.517 159.481 58.911 159.819C59.6079 160.009 60.326 160.115 61.0441 160.136C61.7833 160.178 62.5226 160.072 63.3251 160.009C62.6704 160.474 61.9101 160.812 61.1075 160.939C60.3049 161.108 59.439 161.044 58.6364 160.833C57.0524 160.41 55.6162 159.354 54.877 157.917Z" fill="#F29866"/>
<path d="M57.2217 162.861C57.7286 162.417 58.2989 162.312 58.8691 162.354C59.4183 162.438 60.073 162.692 60.3053 163.326C59.6506 163.41 59.2493 163.431 58.7424 163.389C58.2566 163.326 57.7708 163.22 57.2217 162.861Z" fill="#F29866"/>
<path d="M150.827 284.99H80.7285V288.053H150.827V284.99Z" fill="#E9E7D9"/>
<path d="M80.7285 288.054L49.0479 283.174V280.089L80.7285 284.991V288.054Z" fill="#F3F2E5"/>
<path d="M49.0479 280.089L128.587 277.765L150.827 284.99H80.7285L49.0479 280.089Z" fill="#E9E7D9"/>
<path d="M77.4325 272.146C74.1377 272.484 70.1037 273.583 67.0412 274.829C65.774 275.357 64.9503 275.843 64.7391 276.984C64.3167 277.449 64.2322 278.252 64.9081 278.674C68.4986 280.956 71.4132 280.259 74.9403 278.378C78.5941 276.435 80.4527 277.998 83.7053 279.181C84.9091 279.625 85.585 279.857 86.7255 279.35C87.0845 279.202 87.2324 278.759 87.2535 278.421C87.5914 274.66 80.4738 271.829 77.4325 272.146Z" fill="#F5B379"/>
<path d="M80.791 270.139C77.4963 270.223 73.3989 270.836 70.2942 271.66C69.0058 271.998 66.2179 270.688 65.9434 271.554C65.4998 271.892 65.4154 274.892 66.0701 275.272C69.555 277.258 74.4338 276.139 78.0243 274.871C81.7626 273.561 83.5578 274.892 86.747 275.991C87.9298 276.413 88.5845 276.625 89.7672 276.287C90.1263 276.181 90.2952 275.864 90.3375 275.589C90.8232 272.674 83.8324 270.075 80.791 270.139Z" fill="#F5B379"/>
<path d="M82.269 268.977C78.9742 269.062 74.8769 269.674 71.7722 270.498C70.4838 270.836 69.639 271.174 69.3856 272.04C68.942 272.378 68.8153 272.991 69.4912 273.371C72.976 275.357 75.9329 274.977 79.5234 273.709C83.2617 272.399 85.0569 273.73 88.2461 274.829C89.4288 275.251 90.0836 275.463 91.2663 275.125C91.6254 275.019 91.7943 274.702 91.8366 274.428C92.3224 271.491 85.3104 268.893 82.269 268.977Z" fill="#F5B379"/>
<path d="M90.0414 271.533C89.3445 270.266 87.5915 269.061 85.6906 268.216C83.4519 267.033 80.4316 266.104 76.82 266.59C68.7309 267.688 63.9365 271.153 63.9365 271.153L67.9072 271.597C68.4563 274.554 74.7924 273.35 78.045 272.209C81.7833 270.899 83.5786 272.23 86.7678 273.329C87.9505 273.751 88.6053 273.963 89.788 273.625C90.147 273.519 90.316 273.202 90.3582 272.927C90.4216 272.463 90.2949 271.998 90.0414 271.533Z" fill="#F5B379"/>
<path d="M148.842 284.99H79.0391L88.2265 241.999C88.501 240.753 89.5359 239.844 90.7609 239.844H153.636C156.129 239.844 157.987 242.316 157.417 244.893L148.842 284.99Z" fill="#E5E4DC"/>
<path d="M150.532 284.99H80.7285L89.9159 241.999C90.1905 240.753 91.2254 239.844 92.4504 239.844H156.657C158.473 239.844 159.825 241.64 159.423 243.52L150.532 284.99Z" fill="#F3F2E5"/>
<path d="M-4.7898 277.765C-5.001 279.941 -3.31136 289.828 5.13681 290.187C26.0672 291.053 67.0408 278.927 67.0408 278.927V269.315C67.0408 269.315 11.4518 264.434 4.67216 266.188C-2.06526 267.941 -4.24066 272.42 -4.7898 277.765Z" fill="#C3E7F3"/>
<path d="M-3.56445 283.596C-3.56445 283.596 5.24276 286.173 17.8305 284.99C30.4183 283.786 67.0623 278.927 67.0623 278.927C67.0623 278.927 18.3586 293.631 2.60271 289.723C0.490668 289.216 -2.46619 287.462 -3.56445 283.596Z" fill="#9ED4E3"/>
<path d="M57.918 185.17C57.918 185.17 62.4167 183.818 63.7262 183.818C65.0356 183.839 64.6555 190.451 64.6555 190.451C64.6555 190.451 62.0788 191.592 60.6214 191.592C59.1853 191.592 57.2633 186.966 57.918 185.17Z" fill="#3B343F"/>
<path d="M60.6221 191.613C60.6221 191.613 65.7332 217.387 65.4164 227.612C65.3319 230.443 69.3659 233.316 69.3659 233.316C69.3659 233.316 72.365 229.767 72.7452 227.168C73.1254 224.57 71.3512 198.817 64.6561 190.494L60.6221 191.613Z" fill="#3B343F"/>
<path d="M35.5734 176.424C35.5734 176.424 45.9224 185.233 60.3055 182.973L58.7637 191.254C58.7637 191.254 35.3833 186.945 35.5734 176.424Z" fill="white"/>
<path d="M60.3037 182.952L65.3515 189.839C65.3515 189.839 66.8088 184.853 66.8722 182.592C66.8722 182.592 65.4571 180.818 63.6619 180.585C63.6407 180.585 63.3451 182.635 60.3037 182.952Z" fill="white"/>
<path opacity="0.3" d="M63.1569 137.488C63.6005 133.644 66.5151 133.348 70.0211 133.749C73.506 134.151 76.2305 135.08 75.7869 138.925C75.3434 142.77 72.1754 145.559 68.6905 145.178C65.1845 144.756 62.7134 141.333 63.1569 137.488Z" fill="#80B2D5"/>
<path d="M69.3233 145.728C69.091 145.728 68.8587 145.707 68.6052 145.686C64.8247 145.263 62.1423 141.545 62.607 137.425C62.8182 135.461 63.7053 134.151 65.2048 133.538C66.6621 132.925 68.563 133.052 70.0414 133.221C71.5198 133.39 73.3784 133.686 74.6456 134.616C75.9551 135.566 76.5042 137.024 76.2719 138.989C75.8706 142.834 72.8082 145.728 69.3233 145.728ZM63.663 137.552C63.2617 141.101 65.5427 144.27 68.7319 144.65C71.9 145.01 74.8568 142.411 75.2581 138.862C75.4482 137.256 75.068 136.179 74.0543 135.461C72.9771 134.679 71.2875 134.404 69.9569 134.256C67.9294 134.024 66.6199 134.109 65.6483 134.51C64.4656 134.996 63.8531 135.946 63.663 137.552Z" fill="#544F5B"/>
<path opacity="0.3" d="M46.3222 135.587C46.7657 131.742 49.976 131.467 53.82 131.911C57.6639 132.355 60.663 133.327 60.2406 137.172C59.797 141.016 56.3333 143.784 52.4893 143.34C48.6454 142.897 45.8998 139.432 46.3222 135.587Z" fill="#80B2D5"/>
<path d="M53.2926 143.911C52.9969 143.911 52.7223 143.89 52.4267 143.868C48.3082 143.404 45.3302 139.664 45.7948 135.545C46.0272 133.58 46.9565 132.27 48.6039 131.658C50.1879 131.087 52.2577 131.214 53.884 131.404C55.4891 131.594 57.5378 131.911 58.9317 132.841C60.3679 133.791 60.9804 135.27 60.7692 137.235C60.5369 139.242 59.5442 141.016 57.9813 142.284C56.6296 143.34 55.0034 143.911 53.2926 143.911ZM51.4551 132.291C48.4138 132.291 47.1254 133.305 46.8509 135.65C46.4496 139.2 49.0051 142.411 52.5534 142.812C54.2641 143.002 55.9538 142.516 57.3055 141.439C58.6572 140.362 59.502 138.819 59.7132 137.108C60.03 134.235 58.4249 132.967 53.7784 132.439C52.9124 132.334 52.131 132.291 51.4551 132.291Z" fill="#544F5B"/>
<path d="M63.3467 136.559C62.5653 136.348 60.9601 136.39 60.411 136.411L60.3477 135.355C60.4321 135.355 62.5019 135.228 63.6213 135.524L63.3467 136.559Z" fill="#544F5B"/>
<path d="M27.0615 147.46C26.8503 146.995 24.9705 142.812 26.8925 141.27C28.5821 139.897 44.0212 136.474 45.7742 136.073L46.0065 137.108C39.4803 138.544 28.6877 141.164 27.5684 142.094C26.4912 142.981 27.5684 146.023 28.033 147.016L27.0615 147.46Z" fill="#544F5B"/>
<path d="M35.9942 143.974C34.2835 142.221 28.2219 141.756 27.3138 144.671C25.8565 149.298 30.2706 156.607 36.9446 152.995C39.3946 151.664 37.4938 145.495 35.9942 143.974Z" fill="#F5B379"/>
<path d="M34.7269 146.932C34.7269 146.932 30.4183 144.397 29.9114 145.96C28.9398 149.044 32.3191 150.65 33.5652 151.094C33.5652 151.094 32.2558 149.572 32.8894 148.411C33.523 147.249 34.7269 146.932 34.7269 146.932Z" fill="#F29866"/>
<path d="M29.3419 139.58C29.2363 138.608 26.7441 115.919 36.5018 105.081C39.9022 101.3 44.3797 99.4405 49.7443 99.4616C52.6589 99.4827 55.3623 99.863 57.749 100.56L56.8408 103.602C54.7287 102.969 52.3421 102.652 49.7232 102.631C45.2668 102.567 41.6552 104.088 38.8673 107.194C30.0812 116.975 32.4678 139.01 32.4889 139.221L29.3419 139.58Z" fill="#3B343F"/>
<path d="M45.5211 165.924C43.4513 165.924 41.4026 165.713 39.8819 165.079C35.4255 163.199 32.8488 152.53 32.5742 151.326L34.6229 150.861C35.5733 155.023 38.0655 162.037 40.6845 163.136C43.7892 164.445 50.6745 163.537 53.0822 163.072L53.4835 165.142C53.23 165.185 49.3861 165.924 45.5211 165.924Z" fill="#3B343F"/>
<path d="M39.6071 148.115C39.3537 150.502 38.6145 154.453 36.249 155.678C36.1434 155.741 35.9955 155.784 35.8899 155.847C30.2085 158.403 24.7172 153.375 24.8228 146.129C24.9073 140.826 28.0965 137.214 32.9964 136.644C33.5033 136.58 34.0524 136.622 34.5593 136.728C36.1434 137.066 37.5796 138.165 38.3188 139.749C39.3959 142.01 39.7761 146.573 39.6071 148.115Z" fill="#544F5B"/>
<path d="M39.6064 148.115C39.3529 150.503 38.6137 154.453 36.2482 155.678C36.1426 155.742 35.9948 155.784 35.8892 155.847C38.5715 149.467 38.8249 142.432 34.5586 136.75C36.1426 137.088 37.5788 138.186 38.318 139.771C39.3952 142.01 39.7753 146.573 39.6064 148.115Z" fill="#3B343F"/>
<path d="M30.0609 149.763C29.0893 147.819 28.8992 145.728 29.4484 143.636C29.913 141.883 27.1885 141.122 26.7239 142.876C25.9846 145.707 26.3014 148.559 27.6109 151.178C28.4346 152.826 30.8634 151.39 30.0609 149.763Z" fill="#8A8691"/>
<path d="M55.9757 163.326C55.9757 165.438 54.2649 167.15 52.1529 167.15C50.0408 167.15 48.3301 165.438 48.3301 163.326C48.3301 161.213 50.0408 159.502 52.1529 159.502C54.2649 159.502 55.9757 161.213 55.9757 163.326Z" fill="#544F5B"/>
<path d="M426.196 181.029C422.521 181.156 420.747 184.198 418.613 186.944C416.206 190.768 409.51 191.55 409.764 191.719C411.538 192.965 411.137 196.557 412.869 197.866C413.27 198.162 421.57 193.768 422.626 193.641C423.408 193.536 425.583 194.529 426.407 194.529C428.139 194.571 429.765 194 431.074 192.881C432.701 191.508 434.602 187.346 432.68 184.282C431.666 182.635 427.167 181.008 426.196 181.029Z" fill="#F5B379"/>
<path d="M439.904 179.55C440.347 178.895 441.002 178.24 440.643 177.417C440.495 177.1 440.199 176.888 439.84 176.931C437.58 177.248 436.461 178.578 434.983 180.163C433.377 181.874 431.899 182.761 429.597 183.078C427.738 183.332 425.816 183.374 423.937 183.395C422.944 183.416 423.134 184.937 424.106 184.916C424.486 184.916 424.887 184.916 425.267 184.895C424.929 185.318 425.183 185.973 425.753 186.142C429.005 187.008 433.124 187.113 435.785 184.726C437.39 183.311 438.7 181.325 439.904 179.55Z" fill="#F5B379"/>
<path d="M442.67 184.557C443.114 183.902 443.768 183.247 443.409 182.423C443.261 182.106 442.966 181.895 442.607 181.937C440.347 182.254 439.227 183.585 437.749 185.17C436.144 186.881 434.665 187.768 432.363 188.085C430.505 188.339 428.583 188.381 426.703 188.402C425.71 188.423 425.901 189.944 426.872 189.923C427.252 189.923 427.654 189.923 428.034 189.902C427.696 190.325 427.949 190.979 428.519 191.127C431.772 191.994 435.89 192.12 438.552 189.712C440.157 188.296 441.466 186.311 442.67 184.557Z" fill="#F5B379"/>
<path d="M441.571 189.754C442.142 189.205 442.944 188.698 442.754 187.832C442.691 187.494 442.416 187.219 442.078 187.177C439.797 186.987 438.424 188.064 436.65 189.31C434.728 190.641 433.081 191.191 430.758 191.001C428.878 190.853 426.998 190.472 425.161 190.113C424.189 189.923 424.041 191.444 424.992 191.634C425.372 191.719 425.752 191.782 426.132 191.867C425.71 192.205 424.316 193.937 424.844 194.212C427.843 195.754 433.334 195.733 436.439 193.958C438.298 192.881 440.008 191.212 441.571 189.754Z" fill="#F5B379"/>
<path d="M442.564 181.684C443.007 181.029 443.662 180.374 443.303 179.55C443.155 179.233 442.859 179.022 442.5 179.064C440.241 179.381 439.121 180.712 437.643 182.296C436.038 184.007 434.559 184.895 432.257 185.212C430.398 185.465 428.476 185.507 426.597 185.529C425.604 185.55 425.794 187.071 426.766 187.05C427.146 187.05 427.547 187.05 427.927 187.028C427.589 187.451 427.843 188.106 428.413 188.254C431.666 189.12 435.784 189.247 438.445 186.838C440.05 185.423 441.36 183.437 442.564 181.684Z" fill="#F5B379"/>
<path d="M434.75 178.494C434.877 178.05 434.539 177.48 434.053 177.501C431.751 177.564 428.815 177.121 426.682 178.177C424.612 179.191 423.028 181.346 421.655 183.12C421.317 183.564 421.592 184.008 421.993 184.177C422.035 184.451 422.204 184.705 422.521 184.747C425.351 185.296 426.323 182.867 428.519 181.705C430.716 180.543 433.863 181.536 434.75 178.494Z" fill="#F5B379"/>
<path d="M431.856 184.156C431.856 184.156 435.024 188.592 432.047 193.367C432.68 188.951 431.856 184.156 431.856 184.156Z" fill="#F29866"/>
<path d="M427.823 183.585C427.823 183.585 428.71 186.501 425.689 189.015C425.689 189.015 428.287 187.135 428.604 186.036C428.984 184.684 427.823 183.585 427.823 183.585Z" fill="#F29866"/>
<path d="M393.037 127.369C392.214 125.151 390.756 123.587 389.616 121.58C386.912 116.89 387.546 113.552 389.616 109.053C391.221 105.567 393.27 102.081 392.657 98.0881C391.749 92.2996 386.321 88.2011 381.252 86.4688C376.521 84.8421 371.41 85.7083 366.489 87.2716C357.787 90.0602 365.032 98.1515 369.594 101.342C369.488 102.039 369.382 102.757 369.319 103.454C368.833 107.891 368.96 111.63 370.671 115.792C371.959 118.939 374.092 122.32 372.994 125.953C372.318 128.235 370.438 129.925 369.488 132.101C366.806 138.27 368.812 147.439 372.804 152.636C375.275 155.847 382.562 161.234 386.68 157.473C387.842 156.417 388.095 155.065 387.567 153.565C386.955 151.833 385.138 151.516 384.293 150.1C380.09 143.129 386.089 143.298 388.813 141.734C393.946 138.84 394.959 132.566 393.037 127.369Z" fill="#F7BC4D"/>
<path d="M365.728 128.404C365.728 128.404 354.682 136.685 351.894 137.045C349.106 137.404 351.323 129.038 351.323 129.038L356.794 126.397L365.728 128.404Z" fill="#F6C03B"/>
<path d="M323.107 94.3066C323.107 94.3066 321.396 108.398 321.65 117.609C321.924 126.82 326.888 137.066 337.532 137.467C341.165 137.594 350.014 117.313 350.014 117.313L323.107 94.3066Z" fill="#F9D472"/>
<path d="M325.135 94.6237C325.135 94.6237 317.152 127.285 332.929 133.179C342.792 136.876 335.632 91.7295 333.097 91.3703C330.563 91.0112 325.135 94.6237 325.135 94.6237Z" fill="#F7BC4D"/>
<path d="M337.152 144.692C342.073 142.284 341.503 174.078 319.263 208.112C313.56 216.837 305.64 204.627 308.323 199.07C311.385 192.712 316.475 154.79 337.152 144.692Z" fill="#AFC737"/>
<path d="M309.95 211.028C305.62 208.366 283.296 188.867 283.296 188.867L286.337 181.557C286.337 181.557 314.427 195.775 321.313 200.402C326.065 203.634 315.483 214.45 309.95 211.028Z" fill="#AFC737"/>
<path d="M315.694 175.684C315.694 175.684 318.398 185.064 318.398 187.937C318.398 190.81 316.666 210.774 316.666 210.774L322.749 205.958L324.924 184.05L321.186 175.684H315.694Z" fill="#A3B20B"/>
<path d="M310.054 242.041C311.004 247.576 331.005 369.854 335.208 384.473C337.025 384.473 338.482 384.473 338.482 384.473H345.388C345.388 384.473 362.665 273.519 365.326 257.4C368.03 241.281 358.969 197.634 358.969 197.634C356.857 197.719 321.797 195.648 321.797 195.648C320.656 202.155 308.512 233.21 310.054 242.041Z" fill="#544F5B"/>
<path d="M339.497 384.472L335.041 247.787C335.041 247.787 328.895 241.259 326.593 237.414C326.593 237.414 329.909 245.653 332.549 249.308C332.549 249.308 333.985 288.476 338.505 384.451L339.497 384.472Z" fill="#3B343F"/>
<path d="M343.595 384.472H345.412C345.412 384.472 362.688 273.518 365.349 257.399C368.053 241.28 358.992 197.634 358.992 197.634L343.574 197C343.574 197 356.711 230.907 355.761 256.808C355.043 276.37 347.313 349.657 343.595 384.472Z" fill="#3B343F"/>
<path d="M338.884 383.374V389.141H317.975C317.975 389.141 325.05 383.395 331.977 383.395L338.884 383.374Z" fill="#9ED4E3"/>
<path d="M338.884 389.141H317.975V390.768H338.884V389.141Z" fill="#44B8D3"/>
<path d="M338.885 383.374V389.141H359.794C359.794 389.141 352.719 383.395 345.791 383.395L338.885 383.374Z" fill="#9ED4E3"/>
<path d="M338.89 390.758H359.8V389.132H338.89V390.758Z" fill="#44B8D3"/>
<path d="M339.264 384.473L338.462 390.768H339.75L339.264 384.473Z" fill="#44B8D3"/>
<path d="M316.644 210.753C321.565 214.725 363.193 210.014 363.193 210.014C363.193 210.014 356.646 197.634 359.455 188.55C360.405 185.402 362.074 180.522 363.805 175.24C363.805 175.219 363.827 175.219 363.827 175.198C364.27 173.867 364.693 172.515 365.115 171.163C365.242 170.783 365.368 170.36 365.474 169.98C366.403 167.001 367.269 164.086 367.966 161.424C368.051 161.17 368.093 160.938 368.135 160.727C369.93 148.685 352.527 143.171 352.527 143.171C346.846 146.91 335.251 145.199 335.251 145.199C335.251 145.199 317.467 162.015 315.06 168.522C312.652 175.05 319.622 180.67 319.622 180.67C320.825 185.465 317.256 205.134 316.644 210.753Z" fill="#AFC737"/>
<path d="M336.92 129.038C337.553 135.08 337.891 141.312 337.363 145.093C332.231 152.804 354.787 145.558 354.787 145.558C354.534 143.974 354.407 142.051 354.365 140.15C354.259 136.242 354.449 132.354 354.534 131.214C354.534 131.129 354.534 131.087 354.534 131.023C354.534 130.939 354.534 130.897 354.534 130.897L336.92 129.038Z" fill="#F5B379"/>
<path d="M336.92 131.404C337.047 132.016 337.152 132.608 337.216 133.136C337.511 134.974 337.596 136.39 337.554 137.446C337.596 138.84 337.575 140.995 337.617 142.474C341.461 145.199 351.577 139.453 354.45 135.84C354.492 131.869 354.957 127.517 354.957 127.517L336.92 131.404Z" fill="#F29866"/>
<path d="M319.644 180.691C327.353 181.198 340.067 183.839 346.952 180.121C346.952 180.121 338.863 187.641 320.446 187.937C320.446 187.937 320.172 183.395 319.644 180.691Z" fill="#A3B20B"/>
<path d="M363.215 210.035C363.215 210.035 356.667 197.655 359.476 188.571C360.427 185.423 363.405 176.465 365.137 171.184C364.038 172.705 367.819 158.783 360.047 154.769C354.788 167.043 355.231 195.5 348.409 211.429C352.57 210.732 363.215 210.035 363.215 210.035Z" fill="#A3B20B"/>
<path d="M359.921 150.079C354.979 152.446 361.843 180.881 384.421 214.704C390.208 223.366 397.22 201.416 394.368 195.944C391.517 190.472 379.563 166.6 379.563 166.6C379.563 166.6 369.15 145.685 359.921 150.079Z" fill="#AFC737"/>
<path d="M395.317 197.887C395.317 197.887 388.411 201.014 388.643 204.225C388.643 204.225 384.567 181.493 383.954 175.346L395.317 197.887Z" fill="#A3B20B"/>
<path d="M359.73 101.764C359.73 101.764 360.152 121.939 358.188 127.369C356.224 132.777 349.338 139.052 342.664 139.516C332.886 140.192 327.627 128.974 326.148 124.728C324.67 120.482 324.606 106.37 324.818 103.116C325.029 99.8416 327.458 90.7363 328.725 89.3209C329.992 87.8632 354.978 88.6237 359.73 101.764Z" fill="#F5B379"/>
<path d="M336.603 116.827C337.025 118.074 337.11 119.362 337.025 120.63C336.899 121.897 336.624 123.186 335.969 124.411L335.927 123.397C336.096 123.735 336.687 124.116 337.427 124.306C338.187 124.517 339.18 124.58 340.067 125.066C339.158 125.383 338.377 125.742 337.342 125.848C336.814 125.89 336.265 125.869 335.716 125.658C335.167 125.489 334.575 125.109 334.195 124.517L333.899 124.052L334.153 123.503C335.019 121.496 335.547 119.193 336.603 116.827Z" fill="#F29866"/>
<path d="M340.552 115.327C340.425 117.207 345.853 118.855 349.211 117.017C350.605 116.256 349.359 111.756 345.431 111.503C342.115 111.271 340.636 113.763 340.552 115.327Z" fill="white"/>
<path d="M347.732 114.989C347.585 113.594 346.338 112.559 344.944 112.707C343.551 112.855 342.516 114.101 342.663 115.496C342.811 116.89 344.057 117.925 345.451 117.777C346.866 117.629 347.88 116.383 347.732 114.989Z" fill="#80B2D5"/>
<path d="M344.46 113.151C344.418 112.686 343.996 112.327 343.51 112.391C343.045 112.433 342.686 112.855 342.749 113.341C342.792 113.806 343.214 114.165 343.7 114.102C344.164 114.038 344.502 113.616 344.46 113.151Z" fill="white"/>
<path d="M326.909 115.433C327.015 117.292 332.126 118.475 334.956 116.341C336.139 115.475 334.491 111.102 330.901 111.207C327.859 111.292 326.825 113.89 326.909 115.433Z" fill="white"/>
<path d="M333.478 114.525C333.182 113.151 331.83 112.264 330.458 112.56C329.085 112.856 328.198 114.208 328.493 115.581C328.789 116.954 330.141 117.841 331.514 117.546C332.865 117.25 333.752 115.898 333.478 114.525Z" fill="#80B2D5"/>
<path d="M329.951 113.087C329.845 112.623 329.402 112.327 328.937 112.411C328.473 112.517 328.177 112.961 328.261 113.425C328.367 113.89 328.811 114.186 329.275 114.101C329.74 113.996 330.036 113.552 329.951 113.087Z" fill="white"/>
<path d="M341.143 104.363C340.235 104.595 340.489 106.517 340.996 107.299C341.502 108.081 345.325 106.517 351.872 108.651C352.231 108.778 345.262 103.349 341.143 104.363Z" fill="#F39428"/>
<path d="M333.499 104.489C334.365 104.722 334.027 106.644 333.499 107.405C332.971 108.165 329.359 106.539 322.981 108.546C322.643 108.672 329.591 103.412 333.499 104.489Z" fill="#F39428"/>
<path d="M345.262 127.158C345.262 127.158 342.389 131.679 336.518 129.904C336.518 129.904 339.749 134.869 342.03 134.193C344.311 133.517 345.262 127.158 345.262 127.158Z" fill="white"/>
<path d="M334.47 113.045C333.836 112.39 333.097 111.904 332.273 111.651C331.47 111.397 330.583 111.397 329.781 111.651C328.936 111.841 328.26 112.327 327.753 113.024C327.267 113.7 326.866 114.545 326.908 115.432C326.676 114.545 326.93 113.573 327.415 112.792C327.88 111.989 328.746 111.376 329.633 111.144C330.541 110.911 331.534 110.933 332.4 111.271C333.287 111.63 334.005 112.285 334.47 113.045Z" fill="#534741"/>
<path d="M341.397 113.194C341.82 112.37 342.665 111.799 343.573 111.503C344.481 111.25 345.431 111.144 346.382 111.356C347.332 111.567 348.177 112.137 348.747 112.877C349.318 113.595 349.782 114.503 349.74 115.433C349.592 114.546 349.043 113.785 348.452 113.151C347.839 112.539 347.1 112.032 346.255 111.884C345.431 111.715 344.523 111.757 343.678 111.947C342.834 112.116 341.989 112.496 341.397 113.194Z" fill="#534741"/>
<path d="M370.523 97.4122C370.587 95.3841 370.228 93.356 369.214 91.4124C369.214 91.3913 369.193 91.3913 369.193 91.3702C366.869 87.0182 363.934 84.2718 360.808 82.5606C351.494 77.4904 346.53 75.9693 341.398 75.8637C319.032 75.3989 307.605 84.0183 317.448 94.5179C324.607 102.144 356.711 100.37 356.711 100.37C354.873 108.208 356.499 115.475 356.499 115.475C356.753 115.264 357.027 115.095 357.323 114.947C357.767 119.151 358.21 125.446 357.429 129.038C362.054 132.439 369.024 129.038 371.495 116.848C372.656 111.038 371.558 102.905 370.523 97.4122Z" fill="#F9D472"/>
<path d="M356.793 114.102C358.356 112.792 363.489 112.559 364.629 115.327C366.065 118.792 360.152 126.334 356.202 121.982C354.576 120.165 355.421 115.242 356.793 114.102Z" fill="#F5B379"/>
<path d="M358.694 115.982C358.694 115.982 362.411 114.271 362.517 116.172C362.686 119.024 360.025 120.778 358.99 120.947C358.99 120.947 360.215 119.574 359.877 118.116C359.56 116.679 358.694 115.982 358.694 115.982Z" fill="#F29866"/>
<path d="M384.567 214.978C385.792 217.091 388.558 217.366 394.324 214.366C398.823 212.021 420.007 195.12 420.007 195.12L417.874 187.43C417.874 187.43 390.945 197.465 387.354 201.944C383.743 206.38 381.8 210.267 384.567 214.978Z" fill="#AFC737"/>
<path d="M256.331 211.504H326.43V208.441H256.331V211.504Z" fill="#E9E7D9"/>
<path d="M326.424 211.514L358.105 206.613V203.549L326.424 208.451V211.514Z" fill="#F3F2E5"/>
<path d="M358.105 203.549L278.565 201.225L256.347 208.45H326.424L358.105 203.549Z" fill="#E9E7D9"/>
<path d="M258.31 208.451H328.113L318.926 165.459C318.651 164.213 317.616 163.304 316.391 163.304H253.516C251.024 163.304 249.165 165.776 249.735 168.353L258.31 208.451Z" fill="#E5E4DC"/>
<path d="M256.62 208.451H326.423L317.236 165.459C316.961 164.213 315.926 163.304 314.701 163.304H250.495C248.679 163.304 247.327 165.1 247.728 166.98L256.62 208.451Z" fill="#F3F2E5"/>
<path d="M278.121 211.155C278.29 210.69 278.818 209.93 279.43 210.141C279.493 210.162 279.557 210.204 279.62 210.247C279.62 209.93 279.684 209.592 279.81 209.275C280.085 208.599 280.866 207.669 281.605 208.345C281.901 208.62 282.112 208.979 282.239 209.38C282.471 208.789 282.894 208.282 283.654 208.071C284.752 207.775 285.09 208.535 285.238 209.401C285.555 208.578 286.189 207.437 287.097 208.155C287.604 208.556 287.836 209.401 288.026 209.972C288.301 210.796 288.47 211.62 288.554 212.486C288.554 212.507 288.554 212.549 288.554 212.57C288.618 212.655 288.639 212.803 288.554 212.93C288.09 213.775 286.97 214.577 286.168 213.669C285.956 213.437 285.787 213.162 285.618 212.887C285.555 213.69 285.259 214.345 284.457 214.43C283.612 214.514 283.021 213.796 282.64 212.972C282.64 212.993 282.619 213.014 282.619 213.014C282.345 213.352 281.965 213.775 281.479 213.711C281.077 213.669 280.803 213.31 280.592 212.951C280.571 213.035 280.507 213.12 280.423 213.162C278.944 213.796 277.635 212.528 278.121 211.155Z" fill="#F5B379"/>
<path d="M365.03 111.947L361.883 111.588C361.904 111.356 364.312 89.3422 355.505 79.5609C352.738 76.4765 349.232 74.9765 344.797 74.9765C344.754 74.9765 344.691 74.9765 344.649 74.9765C342.03 74.9976 339.622 75.3357 337.531 75.9483L336.623 72.9062C339.01 72.1879 341.713 71.8287 344.628 71.8076C349.992 71.8287 354.47 73.6667 357.87 77.4271C367.607 88.2859 365.136 110.975 365.03 111.947Z" fill="#3B343F"/>
<path d="M345.409 140.826C344.163 140.826 343.318 140.784 343.213 140.784L343.318 138.671C343.403 138.671 352.105 139.115 355.611 137.066C358.061 135.629 359.581 128.341 359.961 124.073L362.073 124.263C361.968 125.51 360.87 136.432 356.688 138.883C353.815 140.573 348.43 140.826 345.409 140.826Z" fill="#3B343F"/>
<path d="M354.765 120.482C355.018 122.869 355.758 126.82 358.123 128.045C358.229 128.109 358.377 128.151 358.482 128.214C364.164 130.771 369.655 125.743 369.549 118.496C369.465 113.194 366.276 109.581 361.376 109.011C360.869 108.947 360.32 108.99 359.813 109.095C358.229 109.433 356.793 110.532 356.053 112.116C354.976 114.356 354.596 118.919 354.765 120.482Z" fill="#544F5B"/>
<path d="M354.765 120.482C355.018 122.87 355.758 126.82 358.123 128.046C358.229 128.109 358.377 128.151 358.482 128.215C355.8 121.856 355.546 114.8 359.813 109.117C358.229 109.455 356.793 110.553 356.053 112.138C354.976 114.356 354.596 118.919 354.765 120.482Z" fill="#3B343F"/>
<path d="M364.311 122.109C365.282 120.165 365.472 118.074 364.923 115.982C364.459 114.229 367.183 113.468 367.648 115.222C368.408 118.053 368.07 120.905 366.761 123.524C365.937 125.172 363.508 123.736 364.311 122.109Z" fill="#8A8691"/>
<path d="M340.488 139.326C340.784 141.418 342.706 142.897 344.797 142.601C346.888 142.305 348.366 140.383 348.07 138.291C347.775 136.2 345.853 134.742 343.762 135.017C341.671 135.291 340.214 137.235 340.488 139.326Z" fill="#544F5B"/>
<path d="M423.407 -9.98233e-05L520.624 2.87304C529.854 2.95754 536.042 9.71787 536 17.0486L528.777 64.561C528.608 70.0749 524.025 74.4057 518.512 74.2367L452.786 72.2931C452.068 81.1027 448.034 94.1163 431.707 101.996C431.707 101.996 435.34 83.5744 431.074 71.6593L421.295 71.3636C415.783 71.1946 411.453 66.6102 411.622 61.0963L413.143 9.67562C413.312 4.16173 417.895 -0.169108 423.407 -9.98233e-05Z" fill="#D3E0EA"/>
<path d="M431.708 101.996L437.58 106.686L444.085 94.7922L435.214 89.8276L431.708 101.996Z" fill="#D3E0EA"/>
<path d="M414.409 68.3424L421.4 74.0041L426.49 66.8213L416.669 62.2158L414.409 68.3424Z" fill="#D3E0EA"/>
<path d="M429.279 4.68984L526.497 7.56298C532.009 7.73199 536.339 12.3163 536.17 17.8302L534.649 69.251C534.48 74.7648 529.897 79.0957 524.384 78.9267L458.658 76.9831C457.94 85.7926 453.906 98.8063 437.58 106.686C437.58 106.686 441.212 88.2644 436.946 76.3493L427.167 76.0535C421.655 75.8845 417.325 71.3002 417.494 65.7863L419.015 14.3656C419.184 8.85167 423.767 4.52083 429.279 4.68984Z" fill="#EDF1F4"/>
<path d="M466.914 21.3373L523.981 23.0273C525.502 23.0696 526.769 21.8654 526.811 20.3443C526.854 18.8233 525.65 17.5557 524.129 17.5134L467.062 15.8234C465.541 15.7811 464.274 16.9642 464.232 18.5064C464.189 20.0274 465.393 21.295 466.914 21.3373Z" fill="white"/>
<path d="M429.363 20.2386L454.095 20.978C455.616 21.0203 456.883 19.8372 456.925 18.295C456.967 16.774 455.785 15.5064 454.243 15.4641L429.532 14.7247C428.011 14.6825 426.744 15.8655 426.702 17.3866C426.638 18.9077 427.842 20.1752 429.363 20.2386Z" fill="white"/>
<path d="M486.366 34.4988L523.622 35.5974C525.143 35.6397 526.41 34.4355 526.453 32.9144C526.495 31.3933 525.291 30.1258 523.77 30.0835L486.514 28.985C484.993 28.9427 483.726 30.1469 483.684 31.668C483.641 33.189 484.845 34.4566 486.366 34.4988Z" fill="white"/>
<path d="M429.004 32.8083L473.188 34.1181C474.708 34.1604 475.976 32.9562 476.018 31.4562C476.06 29.9352 474.856 28.6676 473.336 28.6254L429.152 27.3156C427.631 27.2733 426.364 28.4564 426.321 29.9774C426.279 31.4985 427.483 32.7661 429.004 32.8083Z" fill="white"/>
<path d="M512.85 47.8718L523.242 48.1676C524.762 48.2098 526.03 47.0268 526.072 45.5057C526.114 43.9846 524.91 42.717 523.39 42.6748L512.998 42.379C511.478 42.3368 510.21 43.5198 510.168 45.0409C510.126 46.562 511.33 47.8295 512.85 47.8718Z" fill="white"/>
<path d="M428.623 45.3996L500.306 47.5122C501.826 47.5545 503.093 46.3714 503.136 44.8503C503.178 43.3293 501.995 42.0617 500.453 42.0194L428.771 39.9068C427.25 39.8646 425.983 41.0688 425.941 42.5898C425.898 44.0898 427.102 45.3574 428.623 45.3996Z" fill="white"/>
<path d="M465.626 65.0892L522.694 66.7793C524.214 66.8216 525.482 65.6385 525.524 64.0963C525.566 62.5752 524.362 61.3077 522.863 61.2654L465.795 59.5753C464.275 59.5331 463.008 60.7161 462.965 62.2372C462.902 63.7794 464.106 65.047 465.626 65.0892Z" fill="white"/>
<path d="M428.074 63.9904L452.827 64.7298C454.348 64.7721 455.615 63.589 455.657 62.068C455.7 60.5469 454.517 59.2793 452.975 59.2371L428.222 58.4977C426.701 58.4554 425.434 59.6385 425.392 61.1807C425.349 62.6806 426.553 63.9482 428.074 63.9904Z" fill="white"/>
<path d="M546.604 155.234L557.438 125.615L557.459 125.573L587.704 127.136L558.853 117.503V117.461L557.713 86.6802L617.336 132.291L546.604 155.234Z" fill="#EDF1F4"/>
<path d="M557.438 125.616L558.853 117.461V117.503L611.126 131.214L557.459 125.573L557.438 125.616Z" fill="#D3E0EA"/>
</g>
<defs>
<clipPath id="clip0">
<rect width="776.768" height="400" fill="white" transform="translate(-97)"/>
</clipPath>
</defs>
</svg>
