<svg width="680" height="400" viewBox="0 0 680 400" fill="none" xmlns="http://www.w3.org/2000/svg">
<g clip-path="url(#clip0)">
<path d="M744.117 390.511C744.117 395.751 577.542 400.02 372.059 400.02C166.576 400 0 395.751 0 390.511C0 385.271 166.576 381.022 372.059 381.022C577.542 381.002 744.117 385.25 744.117 390.511Z" fill="#EDF1F4"/>
<path d="M470.611 388.447C473.125 388.447 475.163 386.409 475.163 383.895C475.163 381.381 473.125 379.343 470.611 379.343C468.097 379.343 466.059 381.381 466.059 383.895C466.059 386.409 468.097 388.447 470.611 388.447Z" fill="#5486AA"/>
<path d="M490.681 388.447C493.195 388.447 495.234 386.409 495.234 383.895C495.234 381.381 493.195 379.343 490.681 379.343C488.167 379.343 486.129 381.381 486.129 383.895C486.129 386.409 488.167 388.447 490.681 388.447Z" fill="#5486AA"/>
<path d="M510.753 388.447C513.267 388.447 515.305 386.409 515.305 383.895C515.305 381.381 513.267 379.343 510.753 379.343C508.238 379.343 506.2 381.381 506.2 383.895C506.2 386.409 508.238 388.447 510.753 388.447Z" fill="#5486AA"/>
<path d="M495.739 269.074H485.623V377.825H495.739V269.074Z" fill="#7DC7E7"/>
<path d="M499.646 302.377H481.699V329.934H499.646V302.377Z" fill="#67B2D0"/>
<path d="M489.043 230.976H554.698L536.488 317.471H467.414L484.632 234.254C485.199 232.291 486.999 230.976 489.043 230.976Z" fill="#7DC7E7"/>
<path d="M503.085 317.471H431.562C429.559 311.219 434.233 304.826 440.788 304.826H507.131L503.085 317.471Z" fill="#7DC7E7"/>
<path d="M547.071 317.471H487.688C485.685 311.219 490.359 304.826 496.914 304.826H548.568L547.071 317.471Z" fill="#67B2D0"/>
<path d="M554.556 230.976H559.574C562.67 230.976 564.895 233.971 563.985 236.925L547.596 317.471H532.928L550.146 234.254C550.732 232.291 552.533 230.976 554.556 230.976Z" fill="#67B2D0"/>
<path d="M517.875 380.86H463.47C463.47 377.501 466.181 374.79 469.54 374.79H511.806C515.164 374.79 517.875 377.501 517.875 380.86Z" fill="#67B2D0"/>
<path d="M493.09 220.617C496.044 224.947 486.029 250.885 451.027 267.962C442.064 272.332 441.699 258.655 446.697 255.498C451.694 252.342 482.286 216.065 482.286 216.065C482.286 216.065 487.587 212.524 493.09 220.617Z" fill="#F5B379"/>
<path d="M470.916 231.786C470.916 231.786 469.661 242.57 463.996 248.134C458.351 253.698 453.88 257.137 453.88 257.137L465.251 261.103L485.483 242.691L470.916 231.786Z" fill="#F29866"/>
<path d="M494.749 206.252C494.749 206.252 476.095 212.403 466.1 229.661C466.1 229.661 482.286 243.723 482.346 248.741L487.566 235.124C487.566 235.104 500.556 220.172 494.749 206.252Z" fill="#C3E7F3"/>
<path d="M479.636 243.46L488.396 210.379C488.396 210.379 466.626 222.782 471.664 234.82L479.636 243.46Z" fill="#9FD5E4"/>
<path d="M417.662 292.302C413.049 299.909 430.915 385.412 430.915 385.412L436.034 385.797L436.479 310.814C436.479 310.814 471.825 301.487 476.196 294.021C480.283 287.021 480.283 274.679 480.283 274.679C478.28 274.78 490.925 266.06 490.925 266.06C460.576 266.06 421.163 286.535 417.662 292.302Z" fill="#544F5B"/>
<path d="M436.48 310.814L436.015 385.675L432.535 386.302C432.535 386.302 429.399 301.831 431.948 294.891C436.561 282.246 477.208 270.592 477.208 270.592L455.903 308.71C455.883 308.71 438.645 311.725 436.48 310.814Z" fill="#3B343F"/>
<path d="M436.924 297.319C434.416 304.684 459.646 385.291 459.646 385.291L465.169 385.797L461.932 310.127C461.932 310.127 508.528 306.566 512.898 299.1C516.985 292.099 519.373 271.644 519.373 271.644C517.37 271.745 499.261 267.476 499.261 267.476C468.933 267.476 439.15 290.845 436.924 297.319Z" fill="#544F5B"/>
<path d="M436.135 381.184L437.066 386.707H416.348C416.348 386.707 422.802 381.204 430.045 381.184C429.964 381.892 434.173 383.106 435.953 381.285L436.135 381.184Z" fill="#EA5081"/>
<path d="M437.066 386.687H416.348V388.245H437.066V386.687Z" fill="#D8326E"/>
<path d="M464.886 381.184L465.817 386.707H445.099C445.099 386.707 451.148 381.204 458.371 381.184C458.29 381.892 462.903 383.106 464.684 381.285L464.886 381.184Z" fill="#EA5081"/>
<path d="M465.817 386.687H445.099V388.245H465.817V386.687Z" fill="#D8326E"/>
<path d="M476.176 267.355C490.905 277.734 519.899 280.486 519.899 280.486C519.899 280.486 519.312 247.183 519.312 236.196C519.312 236.176 519.332 236.176 519.332 236.156C519.838 234.922 520.344 233.667 520.85 232.372C520.991 232.008 521.133 231.624 521.275 231.259C522.367 228.488 523.399 225.736 524.229 223.268C524.31 223.025 524.39 222.822 524.431 222.6C525.746 218.654 526.515 211.634 520.546 207.607C517.289 205.422 509.135 203.642 509.135 203.642C503.45 206.818 493.293 205.888 493.293 205.888C493.293 205.888 475.529 221.325 473.283 228.751C471.361 235.144 477.026 240.708 477.026 240.708C477.835 245.341 481.882 263.065 476.176 267.355Z" fill="#C3E7F3"/>
<path d="M491.938 190.572C492.909 196.297 493.597 202.246 493.313 205.888C488.862 213.576 509.722 203.885 509.722 203.885C509.398 202.387 509.439 202.003 509.277 200.182C508.933 196.459 508.892 192.716 508.913 191.644C508.913 191.563 508.913 191.522 508.913 191.462C508.913 191.381 508.913 191.34 508.913 191.34L491.938 190.572Z" fill="#F5B379"/>
<path d="M491.938 190.572C492.079 191.159 492.221 191.705 492.322 192.211C492.727 193.951 492.888 195.286 492.909 196.298C493.03 197.633 493.131 199.697 493.273 201.093C497.097 203.48 506.444 197.39 508.973 193.769C508.791 189.965 508.973 185.797 508.973 185.797L491.938 190.572Z" fill="#F29866"/>
<path d="M477.046 240.708C484.37 241.72 496.044 242.731 502.883 239.636C502.883 239.636 495.842 248.174 478.24 247.182C478.24 247.182 477.43 244.633 477.046 240.708Z" fill="#9FD5E4"/>
<path d="M519.009 283.055C519.009 283.055 520.931 253.718 519.312 236.196C518.523 227.678 520.162 221.143 515.468 214.406C502.276 225.777 512.898 266.97 508.164 277.653C512.19 279.595 519.009 283.055 519.009 283.055Z" fill="#9FD5E4"/>
<path d="M524.978 212.969C530.218 212.909 536.794 253.475 529.571 267.496C524.998 276.358 516.683 267.132 516.844 261.224C516.986 255.316 512.009 232.372 512.009 232.372C512.009 232.372 515.185 213.05 524.978 212.969Z" fill="#F5B379"/>
<path d="M520.566 207.628C520.566 207.628 530.864 212.302 535.72 230.106C535.72 230.106 515.244 237.269 513.322 241.902L510.753 232.474C510.732 232.474 509.984 218.392 520.566 207.628Z" fill="#C3E7F3"/>
<path d="M531.208 267.577C530.925 269.054 527.789 275.286 522.124 273.809C508.062 270.167 483.317 253.86 483.317 253.86L485.26 247.486C485.26 247.486 523.135 255.458 527.263 257.987C531.39 260.516 531.937 263.915 531.208 267.577Z" fill="#F5B379"/>
<path d="M529.57 270.571C529.57 270.571 523.238 271.138 514.841 268.609C506.445 266.08 482.186 257.784 482.186 257.784C482.186 257.784 513.303 274.416 524.553 273.91C526.05 273.829 528.296 273.04 529.57 270.571Z" fill="#F29866"/>
<path d="M464.36 244.128C465.816 242.549 470.308 239.656 472.979 240.385C475.609 241.093 480.647 242.448 482.812 243.986C483.662 244.593 480.586 246.96 479.817 247.304C479.554 247.81 479.028 248.154 478.401 247.83C476.398 246.819 474.355 245.402 472.21 244.694C470.247 244.067 468.123 245.685 466.1 246.09C465.048 246.313 463.955 244.552 464.36 244.128Z" fill="#F5B379"/>
<path d="M466.526 251.29C468.327 249.287 472.151 246.414 474.882 246.9C477.573 247.385 480.729 248.255 483.016 249.611C483.926 250.157 482.854 252.848 482.206 252.565C480.122 251.715 476.622 251.755 474.417 251.229C472.414 250.744 470.39 252.544 468.387 253.091C467.376 253.414 465.939 251.938 466.526 251.29Z" fill="#F5B379"/>
<path d="M470.41 253.94C471.361 251.816 475.003 248.053 477.815 248.134C480.567 248.215 483.601 250.116 486.09 251.108C487.081 251.492 487.122 252.666 486.434 253.192C486.292 253.738 484.188 255.984 481.558 255.377C479.332 254.871 479.09 252.787 476.803 252.605C474.719 252.443 474.213 254.345 472.291 255.195C471.32 255.62 470.167 254.466 470.41 253.94Z" fill="#F5B379"/>
<path d="M464.037 249.004C464.846 247.446 469.155 243.581 471.968 243.784C474.699 243.986 477.613 246.03 480.041 247.142C480.992 247.567 480.729 248.781 480 249.267C479.818 249.813 479.353 250.238 478.685 250.036C476.5 249.408 474.214 248.417 471.948 248.134C469.884 247.871 468.063 249.854 466.1 250.622C465.109 251.007 463.774 249.53 464.037 249.004Z" fill="#F5B379"/>
<path d="M480.344 242.711C480.344 242.711 485.645 244.249 487.486 246.394C489.347 248.538 486.413 253.192 486.413 253.192L482.731 251.937L476.965 247.729L479.453 243.379L480.344 242.711Z" fill="#F5B379"/>
<path d="M472.211 251.391C472.211 251.391 474.882 247.709 477.815 248.133C477.815 248.133 473.162 247.688 470.673 251.452C470.188 252.16 467.82 253.111 467.82 253.111C467.82 253.111 468.407 253.414 470.066 252.564C471.725 251.715 472.211 251.391 472.211 251.391Z" fill="#F29866"/>
<path d="M467.334 245.686C467.334 245.686 470.632 243.764 471.968 243.804C473.303 243.845 475.286 244.654 475.286 244.654C475.286 244.654 472.716 242.772 471.32 243.318C469.924 243.865 466.06 246.131 466.06 246.131L467.334 245.686Z" fill="#F29866"/>
<path d="M459.342 255.377H392.189V258.918H459.342V255.377Z" fill="#E9E7D9"/>
<path d="M459.321 258.918H490.237V254.952L459.321 255.377V258.918Z" fill="#F3F2E5"/>
<path d="M490.237 254.952L406.049 252.807L392.189 255.377H459.321L490.237 254.952Z" fill="#E9E7D9"/>
<path d="M394.071 255.377H460.94L452.139 214.204C451.876 213.01 450.885 212.14 449.711 212.14H389.479C387.091 212.14 385.311 214.507 385.857 216.976L394.071 255.377Z" fill="#E5E4DC"/>
<path d="M392.453 255.377H459.322L450.521 214.204C450.258 213.01 449.266 212.14 448.093 212.14H386.586C384.846 212.14 383.551 213.86 383.935 215.66L392.453 255.377Z" fill="#F3F2E5"/>
<path d="M509.195 145.392L513.444 148.589L515.326 150.005C544.866 141.123 520 195.367 526.575 199.96C530.318 202.57 535.862 200.89 539.929 198.988C543.024 197.511 545.27 195.893 545.27 195.893C545.27 195.893 537.299 194.679 545.088 178.634C552.878 162.549 555.123 131.573 534.183 129.833C522.387 128.862 509.195 145.392 509.195 145.392Z" fill="#613D44"/>
<path d="M513.445 148.589L515.327 150.005C544.867 141.123 520.001 195.367 526.576 199.96C530.319 202.57 535.863 200.89 539.93 198.988C539.586 198.907 539.121 198.907 538.514 198.968C532.95 199.616 530.36 189.398 532.687 178.634C535.034 167.85 540.092 151.138 532.687 144.016C527.365 138.877 518.2 144.846 513.445 148.589Z" fill="#51333A"/>
<path d="M517.147 151.179C517.147 151.179 521.133 150.005 518.866 146.687C516.621 143.349 510.389 139.808 507.84 144.219C505.29 148.629 517.147 151.179 517.147 151.179Z" fill="#EA5081"/>
<path d="M481.233 146.97C481.233 146.97 458.654 187.193 495.983 198.321C495.983 198.321 488.942 182.641 490.561 175.519C490.561 175.519 485.523 155.529 481.233 146.97Z" fill="#613D44"/>
<path d="M512.231 164.067C512.231 164.067 511.462 183.389 509.257 188.447C507.052 193.505 496.935 200.243 491.877 200.243C486.819 200.243 479.94 188.184 478.766 184.036C477.593 179.889 478.382 166.394 478.766 163.278C479.151 160.162 482.004 151.603 483.298 150.309C484.614 149.034 508.468 151.239 512.231 164.067Z" fill="#F5B379"/>
<path d="M489.307 175.701C489.631 176.915 489.631 178.149 489.489 179.363C489.307 180.577 488.963 181.791 488.275 182.904V181.932C488.417 182.276 488.943 182.661 489.651 182.883C490.359 183.126 491.31 183.247 492.119 183.753C491.229 183.996 490.46 184.3 489.469 184.34C488.963 184.36 488.437 184.3 487.911 184.077C487.385 183.875 486.859 183.47 486.515 182.883L486.252 182.418L486.515 181.912C487.527 180.071 488.174 177.906 489.307 175.701Z" fill="#F29866"/>
<path d="M493.091 175.903C492.868 177.683 497.967 179.585 501.265 178.027C502.641 177.38 501.73 172.989 497.987 172.524C494.831 172.14 493.273 174.426 493.091 175.903Z" fill="white"/>
<path d="M500.091 175.458C500.031 174.102 498.898 173.05 497.562 173.111C496.207 173.172 495.155 174.305 495.215 175.64C495.276 176.996 496.409 178.048 497.744 177.987C499.1 177.947 500.152 176.793 500.091 175.458Z" fill="#80B2D5"/>
<path d="M496.794 173.9C496.774 173.435 496.389 173.091 495.944 173.111C495.499 173.131 495.135 173.516 495.155 173.961C495.175 174.406 495.56 174.77 496.005 174.75C496.47 174.73 496.814 174.345 496.794 173.9Z" fill="white"/>
<path d="M480.04 175.215C480.04 177.016 484.855 178.432 487.688 176.571C488.861 175.802 487.546 171.533 484.107 171.411C481.193 171.31 480.04 173.738 480.04 175.215Z" fill="white"/>
<path d="M486.475 174.163C486.272 172.828 485.038 171.897 483.703 172.099C482.367 172.301 481.437 173.536 481.639 174.871C481.841 176.206 483.075 177.137 484.411 176.935C485.746 176.753 486.657 175.498 486.475 174.163Z" fill="#80B2D5"/>
<path d="M482.913 172.989C482.853 172.544 482.428 172.221 481.983 172.302C481.537 172.362 481.214 172.787 481.295 173.232C481.355 173.677 481.78 174.001 482.225 173.92C482.67 173.859 482.974 173.435 482.913 172.989Z" fill="white"/>
<path d="M494.992 165.301C494.102 165.422 494.142 167.284 494.547 168.073C494.931 168.862 498.755 167.79 504.764 170.521C505.088 170.663 499.018 164.755 494.992 165.301Z" fill="#613D44"/>
<path d="M486.839 165.281C487.668 165.503 487.345 167.344 486.839 168.073C486.333 168.801 482.873 167.243 476.743 169.165C476.419 169.287 483.096 164.249 486.839 165.281Z" fill="#613D44"/>
<path d="M497.704 186.849C497.339 188.427 496.105 189.803 494.588 190.511C493.819 190.835 492.989 191.077 492.16 191.057C491.33 191.077 490.521 190.916 489.772 190.612C491.371 190.45 492.848 190.228 494.163 189.601C495.498 188.994 496.631 188.043 497.704 186.849Z" fill="#F29866"/>
<path d="M496.793 191.765C496.408 192.474 495.741 192.898 495.032 193.121C494.324 193.323 493.556 193.344 492.827 192.979C493.495 192.534 494.122 192.352 494.749 192.15C495.397 191.968 496.004 191.806 496.793 191.765Z" fill="#F29866"/>
<path d="M487.404 173.374C486.838 172.726 486.15 172.2 485.401 171.917C484.632 171.634 483.803 171.573 483.014 171.755C482.204 171.897 481.516 172.302 480.99 172.949C480.485 173.576 480.06 174.345 480.04 175.215C479.857 174.365 480.181 173.435 480.687 172.726C481.173 171.978 482.043 171.452 482.913 171.27C483.803 171.108 484.733 171.169 485.563 171.553C486.372 171.958 487 172.625 487.404 173.374Z" fill="#534741"/>
<path d="M494.021 173.92C494.486 173.151 495.315 172.666 496.185 172.443C497.076 172.241 497.986 172.2 498.876 172.463C499.767 172.726 500.556 173.313 501.061 174.062C501.567 174.79 501.952 175.68 501.871 176.55C501.79 175.68 501.284 174.932 500.778 174.284C500.232 173.657 499.544 173.131 498.755 172.929C497.986 172.726 497.096 172.706 496.287 172.848C495.457 172.989 494.648 173.313 494.021 173.92Z" fill="#534741"/>
<path d="M509.115 162.388C507.355 169.894 508.913 176.854 508.913 176.854C510.673 175.337 508.771 192.474 508.771 192.474C508.771 192.474 531.067 176.955 521.093 153.809C521.093 153.789 521.073 153.789 521.073 153.769C518.847 149.601 516.035 146.97 513.04 145.332C504.118 140.476 493.738 144.684 493.738 144.684C475.043 139.241 472.979 165.24 472.979 165.24C488.538 151.523 509.115 162.388 509.115 162.388Z" fill="#613D44"/>
<path d="M508.71 175.701C510.288 174.547 515.204 174.628 516.135 177.319C517.288 180.718 511.218 187.577 507.698 183.187C506.221 181.386 507.334 176.712 508.71 175.701Z" fill="#F5B379"/>
<path d="M510.409 177.603C510.409 177.603 514.051 176.186 514.051 178.007C514.051 180.759 511.38 182.276 510.409 182.378C510.409 182.378 511.643 181.143 511.441 179.727C511.198 178.331 510.409 177.603 510.409 177.603Z" fill="#F29866"/>
<path d="M493.313 205.706C493.313 205.706 492.544 208.316 493.657 208.68L491.229 211.472C491.229 211.472 490.46 207.648 492.382 205.908L493.313 205.706Z" fill="white"/>
<path d="M493.657 208.68L492.989 212.119C492.989 212.119 505.695 210.481 509.803 203.844C509.823 203.844 500.678 208.336 493.657 208.68Z" fill="white"/>
<path d="M133.272 384.967H87.1417L77.8145 333.455H142.599L133.272 384.967Z" fill="#7059A1"/>
<path d="M133.272 384.967C133.272 388.083 122.953 390.612 110.207 390.612C97.4603 390.612 87.1416 388.083 87.1416 384.967C87.1416 381.851 97.4603 379.322 110.207 379.322C122.953 379.322 133.272 381.872 133.272 384.967Z" fill="#7059A1"/>
<path d="M142.599 333.455C142.599 336.894 128.093 339.687 110.207 339.687C92.3213 339.687 77.8145 336.894 77.8145 333.455C77.8145 330.015 92.3213 327.223 110.207 327.223C128.113 327.223 142.599 330.015 142.599 333.455Z" fill="#8B77BF"/>
<path d="M140.273 333.455C140.273 335.862 126.818 337.805 110.207 337.805C93.5963 337.805 80.1416 335.862 80.1416 333.455C80.1416 331.047 93.5963 329.105 110.207 329.105C126.818 329.105 140.273 331.047 140.273 333.455Z" fill="#544F5B"/>
<path d="M172.443 252.261C170.339 250.764 167.749 249.752 165.139 250.015C163.237 250.197 162.205 251.067 160.526 251.796C156.783 253.435 155.205 252.059 151.866 251.978C144.846 251.796 141.366 259.282 139.423 264.846C138.573 267.254 137.825 269.742 136.489 271.948C134.547 275.144 127.668 280.728 126.292 271.563C125.989 269.54 127.041 267.152 127.122 265.048C127.203 262.924 126.94 260.759 126.353 258.715C125.361 255.336 123.419 252.646 121.113 250.076C119.474 248.255 117.714 246.535 116.763 244.229C115.124 240.182 116.58 235.913 117.228 231.806C118.806 221.973 119.008 211.755 117.39 201.902C116.156 194.396 113.141 186.282 105.958 182.62C100.354 179.767 93.1106 180.132 89.0641 185.372C84.6938 191.037 85.8673 198.725 86.8182 205.261C87.6882 211.209 88.2143 216.854 85.1996 222.317C83.1561 226.04 80.1212 229.135 77.3291 232.291C73.0802 237.087 68.7302 242.448 68.8921 249.226C69.2563 265.514 91.3301 270.916 92.5643 286.899C93.3736 297.198 86.0494 306.363 89.0843 316.803C90.8041 322.691 94.7494 327.527 99.929 330.501C99.9897 330.582 100.03 330.683 100.131 330.764C105.048 334.972 111.522 336.49 117.835 334.972C120.688 334.284 123.399 332.989 125.645 331.088C129.61 327.729 131.29 322.529 135.619 319.515C141.082 315.711 148.69 314.517 152.655 308.751C155.023 305.311 154.84 301.305 155.771 297.42C157.086 291.856 161.072 289.165 165.705 286.373C172.22 282.428 177.44 277.957 178.836 270.066C179.969 263.571 178.007 256.247 172.443 252.261Z" fill="#A3B20B"/>
<path d="M170.582 252.261C168.477 250.764 165.888 249.752 163.278 250.015C161.376 250.197 160.344 251.067 158.665 251.796C154.921 253.435 153.343 252.059 150.005 251.978C142.984 251.796 139.504 259.282 137.562 264.846C136.712 267.254 135.963 269.742 134.628 271.948C132.686 275.144 125.807 280.728 124.431 271.563C124.127 269.54 125.179 267.152 125.26 265.048C125.341 262.924 125.078 260.759 124.492 258.715C123.52 255.336 121.558 252.646 119.251 250.076C117.612 248.255 115.852 246.535 114.901 244.229C113.262 240.182 114.699 235.913 115.367 231.806C116.945 221.973 117.147 211.755 115.528 201.902C114.294 194.396 111.28 186.282 104.077 182.62C98.4723 179.767 91.229 180.132 87.2027 185.372C82.8325 191.037 84.006 198.725 84.9569 205.261C85.8269 211.209 86.353 216.854 83.3383 222.317C81.2948 226.04 78.2599 229.135 75.4678 232.291C71.2189 237.087 66.8689 242.448 67.0307 249.226C67.3949 265.514 89.4688 270.916 90.703 286.899C91.5123 297.198 84.1274 306.384 87.223 316.803C92.2811 333.779 109.661 336.49 115.974 334.972C118.806 334.284 121.538 332.989 123.783 331.088C127.749 327.729 129.428 322.529 133.758 319.515C139.221 315.711 146.828 314.517 150.794 308.751C153.161 305.311 152.979 301.305 153.91 297.42C155.225 291.856 159.211 289.165 163.844 286.373C170.359 282.428 175.579 277.957 176.975 270.066C178.108 263.571 176.146 256.247 170.582 252.261Z" fill="#AFC737"/>
<path d="M162.064 275.771C158.989 276.196 155.974 275.306 153.587 273.343C156.096 272.008 158.726 270.855 161.316 269.762C162.509 269.256 161.478 267.516 160.304 268.022C155.286 270.167 150.046 272.494 145.818 275.994C145.818 271.118 150.431 266.91 148.893 261.71C148.529 260.455 146.566 261.002 146.951 262.256C148.529 267.597 143.066 272.19 143.956 277.714C143.106 278.563 142.277 279.474 141.548 280.486C139.141 283.824 137.907 287.769 136.086 291.452C134.103 295.498 131.21 298.29 127.588 300.658C127.487 296.652 127.406 292.625 127.386 288.619C127.386 287.324 125.362 287.324 125.362 288.619C125.383 293.05 125.463 297.481 125.585 301.892C119.596 305.372 113.809 308.528 110.592 315.003C109.702 316.783 109.075 318.644 108.67 320.546C107.719 304.219 114.153 286.879 106.344 271.705C106.445 271.624 106.546 271.543 106.627 271.421C110.572 265.655 109.48 259.646 107.436 253.354C107.031 252.119 105.069 252.645 105.494 253.9C107.295 259.383 108.387 264.623 105.271 269.722C102.681 265.453 99.3228 261.73 96.7128 257.481C92.8484 251.189 92.9495 245.847 95.4179 239.029C98.1696 231.442 99.6061 223.733 99.7275 215.903C102.115 214.81 104.037 212.989 105.069 210.561C106.263 207.709 105.737 204.431 107.578 201.841C108.326 200.789 106.586 199.777 105.838 200.83C104.442 202.772 104.28 204.977 103.875 207.264C103.39 210.076 102.074 212.221 99.7275 213.637C99.6668 210.258 99.3835 206.859 98.817 203.44C98.5945 202.165 96.6521 202.691 96.8747 203.986C98.1291 211.492 98.21 219.12 96.8342 226.626C95.7012 232.817 92.6258 238.483 91.5737 244.613C90.8049 249.085 91.9784 252.989 93.9409 256.652C87.6081 254.912 80.9516 251.431 80.6076 244.067C80.5469 242.772 78.5236 242.772 78.5843 244.067C79.0295 253.171 87.5474 257.339 95.3977 259.12C97.7245 262.782 100.638 266.222 102.904 269.742C110.431 281.457 108.326 294.81 107.214 308.103C105.251 304.805 105.15 300.86 104.179 297.157C103.228 293.536 101.407 290.319 99.5252 287.122C98.8777 285.989 97.1175 287.021 97.7852 288.134C100.314 292.484 102.095 296.631 103.025 301.588C103.673 305.068 104.462 308.123 106.748 310.916C106.829 311.017 106.91 311.077 107.011 311.118C106.485 319.191 106.627 327.183 109.844 334.729C109.844 334.75 109.864 334.77 109.864 334.79C109.905 334.871 109.925 334.952 109.965 335.033C110.431 336.065 112.231 335.316 111.806 334.264C108.792 326.717 109.844 317.896 115.266 311.644C118.18 308.265 122.085 306.262 125.888 304.117C125.909 304.138 125.909 304.178 125.929 304.198C130.137 308.791 136.652 310.046 142.338 307.557C143.531 307.031 142.499 305.291 141.326 305.817C136.612 307.901 131.27 306.707 127.709 303.106C129.146 302.256 130.542 301.345 131.837 300.293C137.34 295.842 138.554 289.327 142.054 283.521C144.442 279.555 147.922 276.743 151.786 274.497C151.847 274.598 151.908 274.679 152.009 274.78C155.023 277.35 158.706 278.402 162.631 277.855C163.885 277.532 163.339 275.589 162.064 275.771Z" fill="#A3B20B"/>
<path d="M348.549 253.272C348.002 250.986 345.251 245.827 342.317 245.078C339.424 244.35 333.88 242.934 330.987 243.257C329.854 243.379 331.513 247.304 332.079 248.052C332.059 248.68 332.383 249.287 333.152 249.327C335.62 249.428 338.331 249.165 340.759 249.651C342.964 250.096 344.118 252.787 345.858 254.264C346.728 254.992 348.69 253.9 348.549 253.272Z" fill="#F5B379"/>
<path d="M342.641 258.978C341.994 256.105 339.89 251.29 336.996 250.298C334.164 249.327 330.663 248.457 327.77 248.538C326.617 248.578 326.192 251.714 326.961 251.816C329.409 252.119 332.727 254.041 335.115 254.709C337.3 255.336 338.251 258.108 339.89 259.727C340.699 260.536 342.844 259.909 342.641 258.978Z" fill="#F5B379"/>
<path d="M337.501 259.423C337.724 256.874 336.267 251.33 333.535 249.894C330.865 248.477 326.94 248.7 324.026 248.295C322.873 248.133 322.205 249.246 322.59 250.096C322.428 250.703 323.257 253.96 326.07 254.81C328.457 255.518 329.833 253.657 332.119 254.709C334.203 255.66 333.657 257.764 335.033 259.605C335.741 260.536 337.44 260.071 337.501 259.423Z" fill="#F5B379"/>
<path d="M346.242 258.108C346.303 256.186 344.239 250.177 341.447 248.882C338.716 247.607 334.831 248.012 331.917 247.769C330.764 247.668 330.4 248.963 330.825 249.813C330.704 250.419 330.926 251.087 331.675 251.269C334.082 251.836 336.814 252.119 339.141 253.07C341.245 253.92 341.933 256.793 343.41 258.573C344.138 259.443 346.222 258.755 346.242 258.108Z" fill="#F5B379"/>
<path d="M325.949 242.832C320.405 243.5 311.766 243.662 311.766 243.662L312.17 252.564L322.448 252.605L324.755 252.261C324.735 252.261 328.195 242.569 325.949 242.832Z" fill="#F5B379"/>
<path d="M334.022 243.358C334.022 243.358 328.134 242.003 325.2 243.055C322.287 244.107 322.59 250.136 322.59 250.136L326.778 250.905L334.548 249.974L334.507 244.491L334.022 243.358Z" fill="#F5B379"/>
<path d="M337.158 256.024C337.158 256.024 336.571 251.067 333.536 249.914C333.536 249.914 338.21 251.977 338.594 256.914C338.675 257.845 340.435 260.03 340.435 260.03C340.435 260.03 339.727 260.01 338.574 258.31C337.421 256.59 337.158 256.024 337.158 256.024Z" fill="#F29866"/>
<path d="M344.866 253.171C344.866 253.171 342.762 249.57 341.447 248.882C340.152 248.194 337.825 247.911 337.825 247.911C337.825 247.911 341.285 247.486 342.337 248.761C343.369 250.015 345.878 254.264 345.878 254.264L344.866 253.171Z" fill="#F29866"/>
<path d="M263.531 388.447C266.045 388.447 268.083 386.409 268.083 383.895C268.083 381.38 266.045 379.342 263.531 379.342C261.017 379.342 258.979 381.38 258.979 383.895C258.979 386.409 261.017 388.447 263.531 388.447Z" fill="#5486AA"/>
<path d="M243.461 388.447C245.975 388.447 248.013 386.409 248.013 383.895C248.013 381.38 245.975 379.342 243.461 379.342C240.946 379.342 238.908 381.38 238.908 383.895C238.908 386.409 240.946 388.447 243.461 388.447Z" fill="#5486AA"/>
<path d="M223.389 388.447C225.903 388.447 227.942 386.409 227.942 383.895C227.942 381.38 225.903 379.342 223.389 379.342C220.875 379.342 218.837 381.38 218.837 383.895C218.837 386.409 220.875 388.447 223.389 388.447Z" fill="#5486AA"/>
<path d="M238.406 377.83H248.522V269.079H238.406V377.83Z" fill="#7DC7E7"/>
<path d="M234.482 329.925H252.429V302.368H234.482V329.925Z" fill="#67B2D0"/>
<path d="M245.1 230.976H179.465L197.674 317.471H266.749L249.531 234.254C248.944 232.291 247.143 230.976 245.1 230.976Z" fill="#7DC7E7"/>
<path d="M231.057 317.471H302.58C304.583 311.219 299.909 304.825 293.354 304.825H227.011L231.057 317.471Z" fill="#7DC7E7"/>
<path d="M187.071 317.471H246.454C248.457 311.219 243.784 304.825 237.228 304.825H185.574L187.071 317.471Z" fill="#67B2D0"/>
<path d="M179.585 230.976H174.568C171.472 230.976 169.246 233.97 170.157 236.924L186.545 317.471H201.214L183.996 234.254C183.409 232.291 181.609 230.976 179.585 230.976Z" fill="#67B2D0"/>
<path d="M216.268 380.86H270.673C270.673 377.501 267.962 374.79 264.603 374.79H222.337C218.979 374.79 216.268 377.501 216.268 380.86Z" fill="#67B2D0"/>
<path d="M337.036 253.981L338.635 242.651C338.635 242.651 321.882 240.931 304.3 237.855C296.267 236.48 289.429 234.234 287.365 234.497C280.708 235.347 274.355 254.669 288.316 256.206C306.748 258.27 337.036 253.981 337.036 253.981Z" fill="#BED0E2"/>
<path d="M297.865 245.604C295.275 249.226 291.633 251.148 287.809 251.067C286.737 251.087 285.665 250.905 284.592 250.582C276.621 248.174 268.244 225.19 265.048 204.37C263.328 193.182 269.074 174.831 271.967 176.874C278.563 181.528 287.708 214.143 293.636 226.1C297.359 233.546 299.666 243.136 297.865 245.604Z" fill="#BED0E2"/>
<path d="M304.967 258.472C303.106 260.354 286.515 255.883 285.442 255.559C277.471 253.151 268.245 225.19 265.068 204.37C263.348 193.182 267.314 180.779 269.155 176.55C269.6 176.55 270.066 176.571 270.551 176.631C271.016 176.692 271.502 176.773 271.988 176.874C273.141 178.594 274.112 180.738 274.921 183.207C278.927 195.225 274.76 217.521 280.324 231.138C287.789 249.53 305.048 258.371 304.967 258.472Z" fill="#9AB9D5"/>
<path d="M331.755 293.313C336.773 300.921 331.128 386.424 331.128 386.424L325.584 386.808L311.32 311.826C311.32 311.826 272.939 310.592 268.204 303.126C263.773 296.126 252.14 274.578 252.14 274.578C254.305 274.679 258.048 263.187 258.048 263.187C290.966 263.187 327.951 287.547 331.755 293.313Z" fill="#544F5B"/>
<path d="M311.32 311.826L325.24 386.384L329.024 387.011C329.024 387.011 319.008 302.863 316.257 295.903C311.239 283.258 272.23 274.558 272.23 274.558L290.238 309.702C290.238 309.722 308.973 312.737 311.32 311.826Z" fill="#3B343F"/>
<path d="M310.835 298.331C313.566 305.696 290.076 386.303 290.076 386.303L284.067 386.809L283.682 311.138C283.682 311.138 233.08 307.598 228.346 300.132C223.915 293.131 221.325 272.676 221.325 272.676C223.49 272.777 244.087 263.268 244.087 263.268C274.234 270.349 308.427 291.857 310.835 298.331Z" fill="#544F5B"/>
<path d="M323.54 382.196L322.609 387.719H345.412C345.412 387.719 338.006 382.216 330.783 382.216C330.864 382.924 325.523 384.118 323.742 382.317L323.54 382.196Z" fill="#F7C13C"/>
<path d="M345.412 387.699H322.609V389.257H345.412V387.699Z" fill="#F29329"/>
<path d="M283.298 382.196L282.367 387.719H305.169C305.169 387.719 297.764 382.216 290.541 382.216C290.622 382.924 285.281 384.118 283.5 382.317L283.298 382.196Z" fill="#F7C13C"/>
<path d="M305.169 387.699H282.367V389.257H305.169V387.699Z" fill="#F29329"/>
<path d="M270.309 156.641C270.046 157.329 269.783 157.977 269.601 158.563C269.075 160.202 268.69 161.821 268.448 163.399C268.164 164.977 267.982 166.474 267.901 167.87C267.618 172.362 268.063 175.579 268.063 175.579C255.438 181.811 241.761 173.232 241.761 173.232C242.368 171.472 242.833 169.307 243.217 167.142C243.986 162.731 244.29 158.28 244.351 156.985C244.371 156.904 244.371 156.844 244.371 156.783C244.391 156.682 244.391 156.641 244.391 156.641H270.309Z" fill="#F5B379"/>
<path d="M270.308 156.641C270.045 157.329 269.782 157.977 269.6 158.563C268.872 160.627 268.548 162.185 268.447 163.399C268.164 164.977 267.982 166.474 267.901 167.87C261.912 170.501 255.134 171.573 250.217 170.501C247.041 169.833 244.633 168.275 243.217 167.142C243.986 162.731 244.289 158.28 244.35 156.985C244.37 156.904 244.37 156.844 244.37 156.783C244.39 156.682 244.39 156.641 244.39 156.641H270.308Z" fill="#F29866"/>
<path d="M241.011 169.914C241.011 169.914 224.279 180.981 218.047 185.817C218.047 185.817 219.686 257.42 218.128 278.867C218.128 278.867 268.892 274.335 278.563 263.268C278.563 263.268 278.563 233.566 278.563 214.891C278.563 196.217 276.843 179.262 269.215 174.426C269.236 174.406 257.622 182.013 241.011 169.914Z" fill="#BED0E2"/>
<path d="M311.564 245.787C310.755 243.561 307.477 238.746 304.462 238.321C301.508 237.916 295.843 237.127 293.011 237.754C291.898 237.997 293.982 241.7 294.629 242.388C294.67 243.015 295.074 243.581 295.843 243.541C298.291 243.359 300.962 242.812 303.431 243.015C305.676 243.197 307.133 245.766 309.015 247.041C309.945 247.689 311.787 246.373 311.564 245.787Z" fill="#F5B379"/>
<path d="M306.323 252.099C305.352 249.307 302.722 244.775 299.748 244.107C296.834 243.46 293.253 242.994 290.38 243.379C289.247 243.541 289.166 246.717 289.935 246.717C292.403 246.738 295.904 248.275 298.372 248.7C300.598 249.064 301.872 251.735 303.673 253.151C304.563 253.859 306.647 253.01 306.323 252.099Z" fill="#F5B379"/>
<path d="M301.285 253.131C301.224 250.582 299.161 245.24 296.288 244.107C293.475 242.995 289.591 243.642 286.677 243.581C285.524 243.561 284.957 244.714 285.443 245.524C285.362 246.151 286.535 249.287 289.429 249.813C291.877 250.258 293.03 248.255 295.418 249.044C297.582 249.772 297.279 251.897 298.857 253.576C299.646 254.426 301.285 253.758 301.285 253.131Z" fill="#F5B379"/>
<path d="M309.803 250.845C309.662 248.923 306.93 243.197 304.017 242.206C301.164 241.234 297.34 242.064 294.426 242.145C293.273 242.165 293.05 243.5 293.556 244.289C293.496 244.917 293.799 245.544 294.568 245.645C297.036 245.949 299.768 245.908 302.175 246.596C304.361 247.223 305.372 249.995 307.031 251.593C307.881 252.403 309.864 251.472 309.803 250.845Z" fill="#F5B379"/>
<path d="M287.952 237.916C282.51 239.191 273.951 240.324 273.951 240.324L275.327 249.125L285.545 248.033L287.79 247.426C287.79 247.405 290.158 237.39 287.952 237.916Z" fill="#F5B379"/>
<path d="M296.025 237.532C296.025 237.532 290.016 236.824 287.224 238.199C284.432 239.575 285.403 245.524 285.403 245.524L289.652 245.827L297.279 244.047L296.612 238.604L296.025 237.532Z" fill="#F5B379"/>
<path d="M300.557 249.773C300.557 249.773 299.424 244.896 296.288 244.107C296.288 244.107 301.164 245.625 302.095 250.501C302.277 251.432 304.26 253.394 304.26 253.394C304.26 253.394 303.552 253.455 302.216 251.877C300.881 250.319 300.557 249.773 300.557 249.773Z" fill="#F29866"/>
<path d="M307.902 246.09C307.902 246.09 305.393 242.752 304.037 242.206C302.661 241.679 300.314 241.639 300.314 241.639C300.314 241.639 303.714 240.83 304.887 241.983C306.061 243.116 309.015 247.061 309.015 247.061L307.902 246.09Z" fill="#F29866"/>
<path d="M217.4 221.042C217.4 221.042 222.742 240.364 225.514 252.403C225.514 252.403 257.542 241.214 266.323 238.301C266.323 238.301 236.379 238.139 235.367 221.265C233.748 193.87 218.27 185.756 218.27 185.756C218.27 185.756 220.516 213.779 217.4 221.042Z" fill="#9AB9D5"/>
<path d="M221.305 259.383C225.958 262.863 239.373 251.897 236.479 244.269C231.704 231.624 231.522 220.739 231.522 220.739C231.522 220.739 229.357 197.35 218.25 185.716C205.442 199.616 207.789 249.307 221.305 259.383Z" fill="#BED0E2"/>
<path d="M282.691 249.55L282.489 238.118C282.489 238.118 255.903 237.835 238.078 237.572C229.945 237.471 222.823 236.338 220.82 236.925C214.386 238.806 211.149 258.897 225.17 258.23C243.703 257.339 282.691 249.55 282.691 249.55Z" fill="#BED0E2"/>
<path d="M282.63 245.402L282.711 249.57C282.711 249.57 238.867 257.886 226.282 259.039C213.718 260.192 214.547 244.633 214.547 244.633C214.547 244.633 217.542 253.576 229.803 252.686C242.064 251.796 282.63 245.402 282.63 245.402Z" fill="#9AB9D5"/>
<path d="M240.465 168.983C240.465 168.983 250.46 175.903 263.894 175.923C263.894 175.923 261.527 180.739 260.88 184.178C260.88 184.178 243.5 179.282 240.465 168.983Z" fill="white"/>
<path d="M268.892 173.394C268.892 173.394 267.86 175.134 263.895 175.923L270.288 181.71C270.288 181.71 270.389 174.75 270.288 173.738C270.207 172.726 268.892 173.394 268.892 173.394Z" fill="white"/>
<path d="M149.722 269.317H579.444L585.595 258.917H143.571L149.722 269.317Z" fill="#564E4E"/>
<path d="M559.798 389.256H565.301L576.045 269.317H564.411L559.798 389.256Z" fill="#564E4E"/>
<path d="M531.472 389.256H536.975L547.719 269.317H536.085L531.472 389.256Z" fill="#3B343F"/>
<path d="M171.573 389.256H166.09L155.347 269.317H166.98L171.573 389.256Z" fill="#564E4E"/>
<path d="M197.876 389.256H192.393L181.649 269.317H193.283L197.876 389.256Z" fill="#3B343F"/>
<path d="M233.647 146.93C233.647 146.93 238.362 155.63 241.7 157.087C245.038 158.564 239.596 143.773 239.596 143.773L233.647 146.93Z" fill="#613D44"/>
<path d="M238.827 147.658C238.827 147.658 240.89 161.436 245.787 164.148C250.683 166.859 267.86 167.102 271.502 162.731C275.144 158.361 274.456 122.347 273.101 119.535C271.725 116.722 247.972 106.302 239.919 117.774C231.867 129.267 238.827 147.658 238.827 147.658Z" fill="#F5B379"/>
<path d="M279.373 106.019C277.269 109.58 260.759 100.233 248.316 101.73C238.058 102.964 231.301 115.286 231.422 115.832C228.852 116.682 226.849 123.035 227.699 127.526C230.896 144.36 239.454 147.294 241.053 146.849C248.498 144.765 249.146 130.865 245.018 120.222C251.594 119.595 257.138 118.644 264.3 120.324C267.436 121.052 273.324 123.905 276.521 121.983C281.275 119.13 283.036 107.982 279.373 106.019Z" fill="#613D44"/>
<path d="M265.554 139.444C266.748 141.406 267.719 143.005 268.974 144.522L269.52 145.169L269.014 145.797C268.589 146.323 268.002 146.626 267.456 146.727C266.91 146.869 266.384 146.829 265.878 146.748C264.907 146.545 264.199 146.12 263.369 145.716C264.239 145.352 265.21 145.392 265.959 145.271C266.687 145.169 267.274 144.866 267.476 144.562L267.517 145.837C265.918 144.117 265.008 141.71 265.554 139.444Z" fill="#F29866"/>
<path d="M252.786 133.091C252.807 131.29 258.128 130.116 261.183 132.14C262.458 132.969 260.94 137.178 257.157 137.117C253.98 137.077 252.766 134.588 252.786 133.091Z" fill="white"/>
<path d="M259.848 134.972C259.606 136.308 258.331 137.178 257.016 136.935C255.681 136.692 254.811 135.417 255.053 134.102C255.296 132.767 256.571 131.897 257.886 132.14C259.201 132.383 260.071 133.657 259.848 134.972Z" fill="#80B2D5"/>
<path d="M259.95 132.949C259.869 133.394 259.444 133.698 258.999 133.617C258.554 133.536 258.251 133.111 258.331 132.666C258.412 132.221 258.837 131.917 259.282 131.998C259.748 132.059 260.031 132.484 259.95 132.949Z" fill="white"/>
<path d="M265.838 133.414C265.918 131.614 270.835 130.481 273.587 132.484C274.72 133.313 273.182 137.501 269.722 137.441C266.788 137.38 265.777 134.891 265.838 133.414Z" fill="white"/>
<path d="M272.535 135.377C272.272 136.692 270.977 137.562 269.661 137.279C268.346 137.016 267.476 135.721 267.76 134.406C268.023 133.091 269.318 132.221 270.633 132.504C271.948 132.767 272.818 134.062 272.535 135.377Z" fill="#80B2D5"/>
<path d="M272.697 133.354C272.616 133.799 272.171 134.082 271.726 134.001C271.281 133.92 270.997 133.475 271.078 133.03C271.159 132.585 271.604 132.302 272.049 132.382C272.495 132.484 272.778 132.908 272.697 133.354Z" fill="white"/>
<path d="M249.388 124.188C249.813 123.136 259.464 121.437 260.273 122.084C260.982 122.651 261.083 124.674 260.719 126.839C260.638 127.365 260.091 127.729 259.586 127.567C257.32 126.839 252.565 127.324 250.906 127.527C250.542 127.567 250.198 127.365 250.076 127.041C249.732 126.232 249.166 124.714 249.388 124.188Z" fill="#613D44"/>
<path d="M276.803 126.11C276.581 124.997 267.86 121.538 267.011 122.003C266.282 122.428 265.857 124.39 265.857 126.576C265.857 127.122 266.303 127.567 266.788 127.506C269.014 127.223 273.344 128.579 274.881 129.105C275.205 129.226 275.569 129.084 275.731 128.781C276.156 128.032 276.904 126.636 276.803 126.11Z" fill="#613D44"/>
<path d="M257.744 153.566C259.019 154.395 260.273 155.063 261.609 155.387C262.276 155.569 262.964 155.67 263.652 155.69C264.36 155.731 265.068 155.63 265.837 155.569C265.21 156.014 264.482 156.338 263.713 156.459C262.944 156.621 262.114 156.56 261.346 156.358C259.808 155.953 258.432 154.942 257.744 153.566Z" fill="#F29866"/>
<path d="M259.97 158.3C260.455 157.876 261.002 157.774 261.548 157.815C262.074 157.876 262.701 158.139 262.924 158.746C262.296 158.826 261.912 158.847 261.426 158.806C260.961 158.746 260.496 158.665 259.97 158.3Z" fill="#F29866"/>
<path opacity="0.3" d="M265.656 134.001C266.081 130.319 268.873 130.035 272.231 130.42C275.57 130.804 278.18 131.694 277.755 135.377C277.33 139.059 274.295 141.73 270.957 141.366C267.598 140.981 265.231 137.683 265.656 134.001Z" fill="#80B2D5"/>
<path d="M271.563 141.892C271.341 141.892 271.118 141.872 270.875 141.851C267.254 141.447 264.684 137.886 265.129 133.94C265.332 132.059 266.181 130.804 267.618 130.218C269.014 129.631 270.835 129.752 272.251 129.914C273.667 130.076 275.448 130.359 276.662 131.249C277.916 132.14 278.442 133.556 278.22 135.438C277.835 139.14 274.902 141.892 271.563 141.892ZM270.268 130.804C269.338 130.804 268.609 130.926 268.022 131.168C266.91 131.634 266.323 132.544 266.141 134.082C265.756 137.481 267.921 140.516 270.997 140.88C274.052 141.244 276.864 138.736 277.249 135.336C277.431 133.819 277.046 132.767 276.095 132.079C275.286 131.492 274.072 131.148 272.17 130.926C271.442 130.845 270.815 130.804 270.268 130.804Z" fill="#544F5B"/>
<path opacity="0.3" d="M249.551 132.18C249.975 128.498 253.051 128.235 256.733 128.66C260.416 129.084 263.289 130.015 262.884 133.698C262.459 137.38 259.141 140.03 255.459 139.605C251.776 139.181 249.126 135.862 249.551 132.18Z" fill="#80B2D5"/>
<path d="M256.226 140.152C255.943 140.152 255.68 140.131 255.397 140.111C251.452 139.666 248.599 136.085 249.044 132.139C249.266 130.258 250.157 129.003 251.735 128.417C253.252 127.85 255.235 127.992 256.793 128.174C260.313 128.578 263.854 129.55 263.389 133.758C263.166 135.68 262.215 137.38 260.718 138.594C259.403 139.605 257.845 140.152 256.226 140.152ZM250.035 132.241C249.651 135.64 252.099 138.715 255.498 139.099C257.137 139.282 258.756 138.816 260.05 137.784C261.345 136.752 262.155 135.276 262.357 133.637C262.66 130.885 261.123 129.671 256.651 129.165C255.215 129.003 253.394 128.882 252.058 129.368C250.865 129.813 250.217 130.723 250.035 132.241Z" fill="#544F5B"/>
<path d="M265.837 133.131C265.088 132.929 263.551 132.969 263.025 132.989L262.964 131.978C263.045 131.978 265.028 131.856 266.1 132.14L265.837 133.131Z" fill="#544F5B"/>
<path d="M231.077 143.571C230.875 143.126 229.074 139.12 230.915 137.643C232.534 136.328 247.324 133.05 249.003 132.666L249.226 133.657C242.974 135.033 232.635 137.542 231.562 138.432C230.531 139.282 231.563 142.195 232.008 143.146L231.077 143.571Z" fill="#544F5B"/>
<path d="M239.656 140.212C238.017 138.533 232.21 138.088 231.34 140.88C229.944 145.311 234.173 152.312 240.566 148.852C242.913 147.577 241.072 141.669 239.656 140.212Z" fill="#F5B379"/>
<path d="M238.421 143.045C238.421 143.045 234.294 140.617 233.808 142.114C232.878 145.068 236.115 146.606 237.309 147.031C237.309 147.031 236.054 145.574 236.661 144.461C237.268 143.369 238.421 143.045 238.421 143.045Z" fill="#F29866"/>
<path d="M314.011 255.943H266.565V258.918H314.011V255.943Z" fill="#F3F2E5"/>
<path d="M312.3 255.467H328.911V231.025H312.3V255.467Z" fill="#E5E4DC"/>
<path d="M302.601 258.918H338.595C338.595 255.033 335.438 251.877 331.554 251.877H309.642C305.757 251.877 302.601 255.033 302.601 258.918Z" fill="#E5E4DC"/>
<path d="M268.67 234.902H371.432C373.819 234.902 375.741 232.979 375.741 230.592V174.001C375.741 171.614 373.819 169.692 371.432 169.692H268.67C266.282 169.692 264.36 171.614 264.36 174.001V230.572C264.36 232.959 266.282 234.902 268.67 234.902Z" fill="#E5E4DC"/>
<path d="M271.199 234.902H373.961C376.348 234.902 378.271 232.979 378.271 230.592V174.001C378.271 171.614 376.348 169.692 373.961 169.692H271.199C268.812 169.692 266.89 171.614 266.89 174.001V230.572C266.89 232.959 268.812 234.902 271.199 234.902Z" fill="#F3F2E5"/>
<path d="M314.272 255.467H330.883V231.025H314.272V255.467Z" fill="#F3F2E5"/>
<path d="M304.583 258.918H340.577C340.577 255.033 337.421 251.877 333.536 251.877H311.624C307.739 251.877 304.583 255.033 304.583 258.918Z" fill="#F3F2E5"/>
<path d="M398.321 51.3505C398.321 79.7168 375.337 102.701 346.971 102.701C318.604 102.701 295.62 79.7168 295.62 51.3505C295.62 22.9843 318.604 0 346.971 0C375.317 0 398.321 22.9843 398.321 51.3505Z" fill="#EDF1F4"/>
<path d="M320.284 78.0579C320.284 78.0579 322.024 108.083 301.326 121.315C301.326 121.315 340.456 120.526 342.742 87.2435L320.284 78.0579Z" fill="#EDF1F4"/>
<path d="M346.121 84.6534C333.88 81.5174 324.269 68.5078 323.46 52.4835C322.671 36.5806 330.784 22.7617 342.519 18.3105L342.459 17.1977L349.54 16.8335C364.897 16.0647 378.129 30.7738 379.08 49.6914C380.031 68.6089 368.356 84.5725 353 85.3414L346.181 85.8674L346.121 84.6534Z" fill="#F9D472"/>
<path d="M316.399 52.8475C317.35 71.765 330.845 86.6361 346.202 85.8672C361.558 85.0984 372.969 68.9729 372.019 50.0554C371.068 31.1378 357.835 16.4287 342.479 17.1975C327.122 17.9664 315.448 33.9299 316.399 52.8475Z" fill="white"/>
<path d="M321.356 52.6047C322.145 68.1434 333.212 80.364 345.837 79.7368C358.442 79.1095 367.83 65.8571 367.041 50.3184C366.252 34.7797 355.407 22.7008 342.782 23.328C330.177 23.9553 320.587 37.066 321.356 52.6047Z" fill="#F9D472"/>
<path d="M347.314 37.9767C348.144 38.2398 348.913 38.5837 349.621 39.0288C350.329 39.4739 350.956 40.0202 351.482 40.6677C352.008 41.3151 352.433 42.0637 352.716 42.9135C353.02 43.7633 353.161 44.7344 353.161 45.7865L350.106 45.2605C349.924 44.1477 349.56 43.2372 349.034 42.5493C348.508 41.8412 347.759 41.3151 346.788 40.9712L345.311 49.4891C345.878 49.8533 346.444 50.2377 346.99 50.6019C347.537 50.9863 348.083 51.3708 348.569 51.7754C349.074 52.1801 349.52 52.6252 349.924 53.0703C350.329 53.5154 350.673 54.0212 350.936 54.5473C351.199 55.0733 351.381 55.6399 351.482 56.2266C351.583 56.8336 351.563 57.481 351.442 58.1689C351.239 59.3222 350.855 60.2934 350.268 61.0622C349.681 61.8311 348.993 62.4583 348.184 62.9236C347.375 63.389 346.505 63.6925 345.554 63.8746C344.603 64.0364 343.672 64.0971 342.742 64.0364L341.993 68.2853L338.897 67.739L339.646 63.4092C338.756 63.045 337.967 62.5594 337.259 61.912C336.55 61.2848 335.943 60.5362 335.438 59.7066C334.932 58.8771 334.547 57.9464 334.284 56.9347C334.021 55.9231 333.9 54.8912 333.92 53.7784L337.157 54.345C337.157 55.0126 337.218 55.6399 337.36 56.2468C337.501 56.8538 337.683 57.4203 337.946 57.9464C338.189 58.4724 338.513 58.9175 338.897 59.3222C339.282 59.7269 339.707 60.0506 340.192 60.3136L341.811 51.0673C341.022 50.5412 340.273 49.9949 339.545 49.4487C338.837 48.8821 338.209 48.2752 337.683 47.6277C337.157 46.96 336.773 46.2519 336.53 45.4628C336.287 44.6737 336.247 43.8037 336.409 42.8326C336.55 41.9626 336.874 41.1937 337.36 40.526C337.845 39.8584 338.432 39.2919 339.14 38.8265C339.848 38.3612 340.617 38.0172 341.487 37.7946C342.357 37.5721 343.247 37.4709 344.178 37.4709L344.664 34.7395L347.759 35.2858L347.314 37.9767ZM339.666 43.2372C339.585 43.6823 339.606 44.1072 339.707 44.5119C339.808 44.9165 339.99 45.301 340.233 45.6651C340.476 46.0293 340.799 46.3935 341.163 46.7375C341.548 47.0814 341.953 47.4052 342.418 47.7491L343.693 40.4653C342.559 40.4653 341.629 40.7081 340.941 41.2342C340.233 41.74 339.828 42.4077 339.666 43.2372ZM348.245 57.6631C348.326 57.218 348.285 56.7729 348.123 56.348C347.962 55.9231 347.699 55.4982 347.375 55.0936C347.031 54.6889 346.647 54.2843 346.181 53.9201C345.716 53.5357 345.23 53.1715 344.724 52.8275L343.288 61.042C343.956 61.0622 344.583 61.0015 345.129 60.8397C345.696 60.6778 346.201 60.4552 346.626 60.1517C347.051 59.8483 347.415 59.4841 347.699 59.0592C347.982 58.6343 348.164 58.1689 348.245 57.6631Z" fill="white"/>
<path d="M469.438 124.39C469.438 145.169 452.604 162.003 431.825 162.003C411.046 162.003 394.213 145.169 394.213 124.39C394.213 103.611 411.046 86.7778 431.825 86.7778C452.604 86.7778 469.438 103.611 469.438 124.39Z" fill="#EDF1F4"/>
<path d="M442.487 138.715C442.487 138.715 442.609 167 455.78 173.495C455.78 173.495 428.466 171.876 426.625 145.088L442.487 138.715Z" fill="#EDF1F4"/>
<path d="M415.578 126.312H409.609V144.664H415.578V126.312Z" fill="#EA5081"/>
<path d="M426.221 120.243H420.252V144.664H426.221V120.243Z" fill="#EA5081"/>
<path d="M436.862 115.144H430.894V144.643H436.862V115.144Z" fill="#EA5081"/>
<path d="M447.484 122.974H441.516V144.643H447.484V122.974Z" fill="#EA5081"/>
<path d="M445.401 104.117L445.118 106.545L451.734 107.334L443.176 114.213L428.608 105.007L407.04 121.335L408.517 123.298L428.729 107.982L443.337 117.208L453.029 109.438L451.451 115.387L453.818 116.014L456.63 105.432L445.401 104.117Z" fill="#EA5081"/>
<path d="M608.093 392.473V267.618L619.322 265.028L635.67 392.473H608.093Z" fill="#6F93F8"/>
<path d="M686.596 267.618H603.804L616.247 265.028H697.805L686.596 267.618Z" fill="#E5E4DC"/>
<path d="M686.556 267.618H603.764V392.474H686.556V267.618Z" fill="#F3F2E5"/>
<path d="M609.052 297.162H680.959V273.733H609.052V297.162Z" fill="#E5E4DC"/>
<path d="M635.371 286.04H649.574V284.927H635.371V286.04Z" fill="#564E4E"/>
<path d="M647.709 285.443C647.709 286.434 648.539 287.223 649.55 287.223C650.562 287.223 651.391 286.434 651.391 285.443C651.391 284.451 650.562 283.662 649.55 283.662C648.539 283.662 647.709 284.451 647.709 285.443Z" fill="#564E4E"/>
<path d="M633.526 285.443C633.526 286.434 634.356 287.223 635.368 287.223C636.379 287.223 637.209 286.434 637.209 285.443C637.209 284.451 636.379 283.662 635.368 283.662C634.356 283.662 633.526 284.451 633.526 285.443Z" fill="#564E4E"/>
<path d="M609.052 325.165H680.959V301.716H609.052V325.165Z" fill="#E5E4DC"/>
<path d="M635.371 314.041H649.574V312.928H635.371V314.041Z" fill="#564E4E"/>
<path d="M647.709 313.444C647.709 314.436 648.539 315.225 649.55 315.225C650.562 315.225 651.391 314.436 651.391 313.444C651.391 312.453 650.562 311.664 649.55 311.664C648.539 311.664 647.709 312.453 647.709 313.444Z" fill="#564E4E"/>
<path d="M633.526 313.444C633.526 314.436 634.356 315.225 635.368 315.225C636.379 315.225 637.209 314.436 637.209 313.444C637.209 312.453 636.379 311.664 635.368 311.664C634.356 311.664 633.526 312.453 633.526 313.444Z" fill="#564E4E"/>
<path d="M609.052 358.113H680.959V334.663H609.052V358.113Z" fill="#E5E4DC"/>
<path d="M635.371 346.989H649.574V345.876H635.371V346.989Z" fill="#564E4E"/>
<path d="M647.709 346.383C647.709 347.375 648.539 348.164 649.55 348.164C650.562 348.164 651.391 347.375 651.391 346.383C651.391 345.392 650.562 344.603 649.55 344.603C648.539 344.603 647.709 345.412 647.709 346.383Z" fill="#564E4E"/>
<path d="M633.526 346.383C633.526 347.375 634.356 348.164 635.368 348.164C636.379 348.164 637.209 347.375 637.209 346.383C637.209 345.392 636.379 344.603 635.368 344.603C634.356 344.603 633.526 345.412 633.526 346.383Z" fill="#564E4E"/>
<path d="M609.052 386.116H680.959V362.687H609.052V386.116Z" fill="#E5E4DC"/>
<path d="M635.371 374.992H649.574V373.879H635.371V374.992Z" fill="#564E4E"/>
<path d="M647.709 374.385C647.709 375.377 648.539 376.166 649.55 376.166C650.562 376.166 651.391 375.377 651.391 374.385C651.391 373.394 650.562 372.605 649.55 372.605C648.539 372.605 647.709 373.414 647.709 374.385Z" fill="#564E4E"/>
<path d="M633.526 374.385C633.526 375.377 634.356 376.166 635.368 376.166C636.379 376.166 637.209 375.377 637.209 374.385C637.209 373.394 636.379 372.605 635.368 372.605C634.356 372.605 633.526 373.414 633.526 374.385Z" fill="#564E4E"/>
</g>
<defs>
<clipPath id="clip0">
<rect width="744.117" height="400" fill="white"/>
</clipPath>
</defs>
</svg>
