<svg width="1600" height="914" viewBox="0 0 1600 914" fill="none" xmlns="http://www.w3.org/2000/svg">
<rect opacity="0.1" x="-22" y="34.2361" width="1654.39" height="978.45" rx="64" transform="rotate(-26 -22 34.2361)" fill="url(#paint0_linear_14_122)"/>
<path opacity="0.3" d="M-109.293 -101.432C-116.642 -136.006 -94.5715 -169.991 -59.9977 -177.34L1433.04 -494.694C1467.61 -502.043 1501.59 -479.972 1508.94 -445.399L1685.76 386.467C1693.11 421.04 1671.04 455.026 1636.47 462.374L143.433 779.728C108.86 787.077 74.8745 765.007 67.5256 730.433L-109.293 -101.432Z" fill="url(#paint1_linear_14_122)"/>
<g filter="url(#filter0_d_14_122)">
<rect x="-93" y="-130.989" width="1654.39" height="978.45" rx="64" transform="rotate(-16 -93 -130.989)" fill="url(#paint2_linear_14_122)"/>
</g>
<g opacity="0.05" filter="url(#filter1_d_14_122)">
<rect x="22.4208" y="73.2499" width="1654.39" height="594.306" rx="64" transform="rotate(-26 22.4208 73.2499)" fill="url(#paint3_linear_14_122)" shape-rendering="crispEdges"/>
</g>
<defs>
<filter id="filter0_d_14_122" x="-107.855" y="-581.855" width="1889.71" height="1426.27" filterUnits="userSpaceOnUse" color-interpolation-filters="sRGB">
<feFlood flood-opacity="0" result="BackgroundImageFix"/>
<feColorMatrix in="SourceAlpha" type="matrix" values="0 0 0 0 0 0 0 0 0 0 0 0 0 0 0 0 0 0 127 0" result="hardAlpha"/>
<feOffset dy="20"/>
<feGaussianBlur stdDeviation="15"/>
<feComposite in2="hardAlpha" operator="out"/>
<feColorMatrix type="matrix" values="0 0 0 0 0 0 0 0 0 0 0 0 0 0 0 0 0 0 0.2 0"/>
<feBlend mode="normal" in2="BackgroundImageFix" result="effect1_dropShadow_14_122"/>
<feBlend mode="normal" in="SourceGraphic" in2="effect1_dropShadow_14_122" result="shape"/>
</filter>
<filter id="filter1_d_14_122" x="13.9849" y="-640.422" width="1764.35" height="1276.27" filterUnits="userSpaceOnUse" color-interpolation-filters="sRGB">
<feFlood flood-opacity="0" result="BackgroundImageFix"/>
<feColorMatrix in="SourceAlpha" type="matrix" values="0 0 0 0 0 0 0 0 0 0 0 0 0 0 0 0 0 0 127 0" result="hardAlpha"/>
<feOffset dy="20"/>
<feGaussianBlur stdDeviation="15"/>
<feComposite in2="hardAlpha" operator="out"/>
<feColorMatrix type="matrix" values="0 0 0 0 0 0 0 0 0 0 0 0 0 0 0 0 0 0 0.2 0"/>
<feBlend mode="normal" in2="BackgroundImageFix" result="effect1_dropShadow_14_122"/>
<feBlend mode="normal" in="SourceGraphic" in2="effect1_dropShadow_14_122" result="shape"/>
</filter>
<linearGradient id="paint0_linear_14_122" x1="1011.99" y1="34.2361" x2="271.556" y2="691.031" gradientUnits="userSpaceOnUse">
<stop stop-color="#7D17FF"/>
<stop offset="1" stop-color="#0085FF"/>
</linearGradient>
<linearGradient id="paint1_linear_14_122" x1="888.798" y1="-379.012" x2="301.097" y2="417.375" gradientUnits="userSpaceOnUse">
<stop stop-color="#7D17FF"/>
<stop offset="1" stop-color="#0085FF"/>
</linearGradient>
<linearGradient id="paint2_linear_14_122" x1="940.993" y1="-130.989" x2="200.556" y2="525.806" gradientUnits="userSpaceOnUse">
<stop stop-color="#7D17FF"/>
<stop offset="1" stop-color="#0085FF"/>
</linearGradient>
<linearGradient id="paint3_linear_14_122" x1="1056.41" y1="73.2499" x2="634.088" y2="690.01" gradientUnits="userSpaceOnUse">
<stop stop-color="white" stop-opacity="0"/>
<stop offset="1" stop-color="white"/>
</linearGradient>
</defs>
</svg>
