<svg width="42" height="34" viewBox="0 0 42 34" fill="none" xmlns="http://www.w3.org/2000/svg">
<path opacity="0.6" d="M7.2334 3.2C8.2334 1.89999 9.2334 1.19999 10.2334 1.1C11.3334 0.899998 12.2334 1.1 12.9334 1.7C13.7334 2.2 14.1834 2.99999 14.2834 4.09999C14.3834 5.2 13.9334 6.4 12.9334 7.69999C11.3334 9.79999 10.1834 11.95 9.4834 14.15C8.8834 16.25 8.5834 18.2 8.5834 20L8.1334 17C10.7334 17 12.8334 17.75 14.4334 19.25C16.0334 20.65 16.8334 22.6 16.8334 25.1C16.8334 27.5 16.0834 29.5 14.5834 31.1C13.0834 32.6 11.1334 33.35 8.7334 33.35C6.1334 33.35 4.0834 32.5 2.5834 30.8C1.1834 29 0.483399 26.45 0.483399 23.15C0.483399 21.05 0.633399 18.9 0.933399 16.7C1.3334 14.4 2.0334 12.1 3.0334 9.8C4.1334 7.5 5.5334 5.3 7.2334 3.2ZM32.1334 3.2C33.1334 1.89999 34.1334 1.19999 35.1334 1.1C36.2334 0.899998 37.1334 1.1 37.8334 1.7C38.6334 2.2 39.0834 2.99999 39.1834 4.09999C39.2834 5.2 38.8334 6.4 37.8334 7.69999C36.2334 9.79999 35.0834 11.95 34.3834 14.15C33.7834 16.25 33.4834 18.2 33.4834 20L33.0334 17C35.6334 17 37.7334 17.75 39.3334 19.25C40.9334 20.65 41.7334 22.6 41.7334 25.1C41.7334 27.5 40.9834 29.5 39.4834 31.1C37.9834 32.6 36.0334 33.35 33.6334 33.35C31.0334 33.35 28.9834 32.5 27.4834 30.8C26.0834 29 25.3834 26.45 25.3834 23.15C25.3834 21.05 25.5334 18.9 25.8334 16.7C26.2334 14.4 26.9334 12.1 27.9334 9.8C29.0334 7.5 30.4334 5.3 32.1334 3.2Z" fill="#FF5D00"/>
</svg>
